<?xml version="1.0" encoding="utf-8"?>
<!-- Generator: Adobe Illustrator 22.1.0, SVG Export Plug-In . SVG Version: 6.00 Build 0)  -->
<svg version="1.1" id="Layer_1" xmlns="http://www.w3.org/2000/svg" xmlns:xlink="http://www.w3.org/1999/xlink" x="0px" y="0px"
	 viewBox="0 0 100 100" enable-background="new 0 0 100 100" xml:space="preserve">
<g>
	<path fill="none" stroke="#333333" stroke-width="3" stroke-miterlimit="10" d="M81.2,92H18.8c-2,0-3.7-1.6-3.7-3.7V48h69.6v40.3
		C84.8,90.4,83.2,92,81.2,92z"/>
	<path fill="none" stroke="#333333" stroke-width="3" stroke-miterlimit="10" d="M92.2,48H7.8V37c0-2,1.6-3.7,3.7-3.7h77
		c2,0,3.7,1.6,3.7,3.7V48z"/>
	<path fill="none" stroke="#333333" stroke-width="3" stroke-linecap="round" stroke-linejoin="round" stroke-miterlimit="10" d="
		M43.1,13.9l5.1,17.8l-16.6-8.3c-5-2.5-6-9.1-2.1-13l0,0C33.9,6,41.4,7.9,43.1,13.9z"/>
	<path fill="none" stroke="#333333" stroke-width="3" stroke-linecap="round" stroke-linejoin="round" stroke-miterlimit="10" d="
		M54.2,13.9l-5.1,17.8l16.6-8.3c5-2.5,6-9.1,2.1-13l0,0C63.4,6,55.9,7.9,54.2,13.9z"/>
	
		<line fill="none" stroke="#333333" stroke-width="3" stroke-linejoin="round" stroke-miterlimit="10" x1="48.2" y1="35.2" x2="48.2" y2="92"/>
</g>
</svg>
