<?xml version="1.0" encoding="utf-8"?>
<!-- Generator: Adobe Illustrator 22.1.0, SVG Export Plug-In . SVG Version: 6.00 Build 0)  -->
<svg version="1.1" id="Layer_1" xmlns="http://www.w3.org/2000/svg" xmlns:xlink="http://www.w3.org/1999/xlink" x="0px" y="0px"
	 viewBox="0 0 100 100" enable-background="new 0 0 100 100" xml:space="preserve">
<g>
	
		<path fill="none" stroke="#333333" stroke-width="3.9131" stroke-linecap="round" stroke-linejoin="round" stroke-miterlimit="10" d="
		M89.9,60.3c2.1,1.6,2.1,4.7,0,6.4L52.3,94.2c-1.4,1-3.2,1-4.6,0L10.1,66.5c-2.1-1.6-2.1-4.7,0-6.4"/>
	
		<path fill="none" stroke="#333333" stroke-width="3.9131" stroke-linecap="round" stroke-linejoin="round" stroke-miterlimit="10" d="
		M10.1,46.9c-2.1,1.6-2.1,4.7,0,6.4l3.7,2.8l33.9,24.8c1.4,1,3.2,1,4.6,0l33.9-24.9l3.7-2.8c2.1-1.6,2.1-4.7,0-6.4"/>
	
		<path fill="none" stroke="#333333" stroke-width="3.9131" stroke-linecap="round" stroke-linejoin="round" stroke-miterlimit="10" d="
		M89.9,33.5L52.3,5.8c-1.4-1-3.2-1-4.6,0L10,33.5c-2.1,1.6-2.1,4.7,0,6.4l3.7,2.8l8,5.9l26,18.9c1.4,1,3.2,1,4.6,0l26-19.1l8-5.9
		l3.7-2.8C92.1,38.2,92.1,35,89.9,33.5z"/>
</g>
</svg>
