<?xml version="1.0" encoding="utf-8"?>
<!-- Generator: Adobe Illustrator 22.1.0, SVG Export Plug-In . SVG Version: 6.00 Build 0)  -->
<svg version="1.1" id="Layer_1" xmlns="http://www.w3.org/2000/svg" xmlns:xlink="http://www.w3.org/1999/xlink" x="0px" y="0px"
	 viewBox="0 0 100 100" enable-background="new 0 0 100 100" xml:space="preserve">
<g>
	
		<path fill="none" stroke="#333333" stroke-width="3.7391" stroke-linecap="round" stroke-linejoin="round" stroke-miterlimit="10" d="
		M50,66.8L50,66.8c-15.5,0-28-12.6-28-28V7H78v31.8C78,54.3,65.5,66.8,50,66.8z"/>
	
		<path fill="none" stroke="#333333" stroke-width="3.7391" stroke-linecap="round" stroke-linejoin="round" stroke-miterlimit="10" d="
		M50,66.8c-1.9,7.5,0.9,21.3-16.2,26.2c10.8,0,21.6,0,32.4,0C49.1,88.2,51.9,74.3,50,66.8z"/>
	
		<path fill="none" stroke="#333333" stroke-width="3.7391" stroke-linecap="round" stroke-linejoin="round" stroke-miterlimit="10" d="
		M78,40.7L78,40.7V10.7h15v15C93,34,86.3,40.7,78,40.7z"/>
	
		<path fill="none" stroke="#333333" stroke-width="3.7391" stroke-linecap="round" stroke-linejoin="round" stroke-miterlimit="10" d="
		M22,40.7L22,40.7V10.7H7v15C7,34,13.7,40.7,22,40.7z"/>
</g>
</svg>
