<?xml version="1.0" encoding="utf-8"?>
<!-- Generator: Adobe Illustrator 22.1.0, SVG Export Plug-In . SVG Version: 6.00 Build 0)  -->
<svg version="1.1" id="Layer_1" xmlns="http://www.w3.org/2000/svg" xmlns:xlink="http://www.w3.org/1999/xlink" x="0px" y="0px"
	 viewBox="0 0 100 100" enable-background="new 0 0 100 100" xml:space="preserve">
<g>
	<path fill="#333333" d="M93.7,65.2c0,0.5,0,1.2,0,1.7c0,0.1-0.1,0.3-0.1,0.4c-0.5,3.1-2.2,5.5-4.9,6.9c-1.4,0.8-3,1.3-4.5,1.6
		c-4.6,1-9.3,0.6-13.9,0c-1.4-0.2-2.8-0.4-4.3-0.6c-0.1,0.4-0.2,0.9-0.3,1.2c-1.2,4.1-2.5,8.2-4.4,12c-2.4,4.2-5.1,7.9-10.2,8.9
		c-0.8,0-1.6,0-2.4,0c-0.8-0.2-1.4-0.4-2.2-0.6c-2.9-1.2-5.1-3.3-6.5-6c-1.5-2.8-2.6-5.7-3.9-8.5c-0.4-1.1-0.9-2.2-1.3-3.2
		c-1.7,0.5-3.4,1-5.2,1.4c-3.9,1-7.9,1.6-11.8,1c-5.5-0.9-9-5.6-8.3-11.1c0.3-2.7,1.3-5.3,2.8-7.6c1.7-2.7,3.5-5.3,5.3-7.9
		c0.4-0.6,0.9-1.3,1.4-1.9c-1.4-1.3-2.8-2.6-4.1-3.9c-4-4-7.6-8.2-8.7-14c0-0.5,0-1.2,0-1.7c0.1-0.5,0.3-1.2,0.4-1.7
		c1.3-4.1,4.3-6.2,8.4-7.1c4.6-1,9.3-0.8,13.9-0.1c1.7,0.2,3.3,0.4,5.1,0.6c0.4-1.6,0.9-3.2,1.4-4.7c1.4-4.4,3.1-8.8,6-12.5
		c1.3-1.6,2.7-3.2,4.7-4.1c0.8-0.4,1.6-0.6,2.5-1c0.9,0,1.7,0,2.6,0c2.5,0.5,4.6,1.6,6.2,3.5c0.8,1,1.6,1.9,2.3,2.9
		c2,3.2,3.5,6.8,4.6,10.4c0.2,0.5,0.3,1.1,0.5,1.6c1.1-0.3,2-0.5,3-0.9c4.4-1.2,8.7-2.2,13.3-1.6c4.4,0.4,8.1,3.4,8.9,7.6
		c0.5,2.5-0.1,4.9-0.9,7.3c-1.2,3.5-3.3,6.6-5.5,9.6c-1,1.4-1.9,2.7-3,4.1c1.2,1.1,2.4,2.2,3.4,3.2C88.6,54.7,92.5,59,93.7,65.2z
		 M35.9,50.8c-0.1,0-0.1,0-0.2,0c0.1,2.5,0.2,4.9,0.2,7.4c0,0.5,0.2,1,0.8,1.2c4.5,2.2,9,4.3,13.6,6.5c0.9,0.4,1.5,0.3,2.4-0.2
		c3.4-2.5,6.9-4.8,10.3-7.2c0.9-0.6,1.3-1.4,1.3-2.5c0-2.5,0-4.9,0-7.4c0-2-0.1-4.1-0.1-6.2c0-0.9-0.3-1.4-1.1-1.7
		c-4.5-2.2-9.1-4.2-13.7-6.3c-0.5-0.2-1-0.2-1.4,0.1c-3.8,2.7-7.6,5.3-11.4,8C36.2,42.5,36,43,36,43.3
		C35.7,45.8,35.9,48.3,35.9,50.8z M32.9,29.2c-0.2-0.1-0.3-0.1-0.4-0.1c-4.6-0.9-9.4-1.5-14.1-1c-2.2,0.2-4.2,0.8-5.9,2
		c-1.5,1.2-2,2.7-1.7,4.5c0.3,2,1.2,3.9,2.4,5.6c2,2.9,4.5,5.5,7.2,7.9c0.5,0.4,1,0.9,1.5,1.3c3.2-2.9,6.3-5.8,9.4-8.7
		c0.2-0.2,0.3-0.5,0.3-0.9c0.3-2,0.5-4,0.8-6C32.6,32.4,32.8,30.7,32.9,29.2z M78.1,50.6c-0.2,0.2-0.5,0.4-0.8,0.6
		c-2.8,2.6-5.7,5.3-8.5,7.9c-0.3,0.3-0.6,0.9-0.6,1.3c-0.4,3.2-0.9,6.5-1.3,9.7c-0.1,0.5,0.1,0.9,0.6,1c4.7,0.9,9.5,1.4,14.2,0.9
		c1.8-0.2,3.7-0.6,5.3-1.8c1.6-1.2,2.4-2.8,2-4.8c-0.2-1.1-0.4-2.3-1-3.2C85.7,57.6,81.9,54.1,78.1,50.6z M60.8,22.6
		c-1.3-4.3-2.7-8.4-5.4-12c-0.5-0.8-1.3-1.5-2-2.2c-2.2-1.8-4.5-1.9-6.7-0.1c-1.3,1.1-2.3,2.4-3.2,3.8c-1.6,2.5-2.7,5.3-3.7,8.1
		c-0.5,1.8-1.1,3.7-1.6,5.5c0.2,0.1,0.2,0.2,0.3,0.2c3,1,6,1.9,9,2.9c0.3,0.1,0.8,0,1.1-0.2c3.3-1.6,6.7-3.3,10-4.9
		C59.3,23.3,60.1,23,60.8,22.6z M61.7,74.2c-3.2-1-6.2-2-9.4-2.9c-0.2-0.1-0.6,0-0.9,0.1c-3.9,1.9-7.9,3.9-11.7,5.8
		c-0.4,0.2-0.5,0.4-0.4,1c1,3.2,2.3,6.3,3.9,9.4c1,1.6,2,3.1,3.5,4.3c1.4,1.1,2.9,1.5,4.6,1c1.8-0.5,3-1.7,4.1-3.2
		C58.6,85,60.3,79.7,61.7,74.2z M33.7,74.6c-0.5-3.9-1.2-7.6-1.7-11.5c-0.1-1.2-0.5-1.8-1.5-2.4c-2.7-1.7-5.4-3.4-8-5.3
		c-0.2,0.1-0.3,0.2-0.4,0.4c-2.4,2.9-4.6,6-6.3,9.5c-1,1.9-1.6,4.1-1.7,6.2c-0.1,2.4,1,4,3.1,4.7c1.1,0.3,2.2,0.6,3.2,0.8
		C25.1,77.3,29.4,76,33.7,74.6z M77.5,44.6c2.8-3.4,5.4-6.8,7.1-10.8c0.6-1.5,1.1-3.1,1.3-4.7c0.4-2.7-0.9-4.7-3.3-5.5
		c-1.2-0.3-2.4-0.5-3.5-0.5c-4.3-0.3-8.3,0.9-12.3,2.2c-0.5,0.2-0.5,0.5-0.4,1c0.6,4,1.3,7.9,1.9,11.8c0,0.2,0.2,0.5,0.3,0.6
		C71.5,40.6,74.4,42.6,77.5,44.6z M46.7,69c-3.4-1.6-6.8-3.2-10.3-4.8c0.5,3.1,1.1,6,1.5,9C40.9,71.7,43.7,70.4,46.7,69z M62,27.1
		c-3,1.1-5.8,2.4-8.5,4.1c3.4,1.6,6.7,3.1,10,4.7C63.1,32.9,62.5,30.1,62,27.1z M74.6,47.8c-2-1.4-4-2.7-6-4.1c0,3.3,0,6.6,0,9.9
		C70.7,51.7,72.6,49.8,74.6,47.8z M31.3,46.8c-0.1,0-0.1-0.1-0.2-0.1c-1.9,1.8-3.9,3.7-5.8,5.6c2,1.4,4,2.7,6,4.1
		C31.3,53,31.3,49.9,31.3,46.8z M37.3,30.1c-0.3,2.3-0.6,4.4-1,6.8c2.5-1.7,4.7-3.2,7.1-4.9C41.3,31.3,39.4,30.7,37.3,30.1z
		 M62.6,69.9c0.3-2.2,0.6-4.3,1-6.7c-2.5,1.7-4.7,3.2-7.1,4.9c2,0.5,3.8,1.1,5.6,1.6C62.2,69.8,62.3,69.8,62.6,69.9z"/>
	<path fill="#333333" d="M49.9,55.3c-2.9,0-5.2-2.4-5.2-5.3c0-2.8,2.4-5.2,5.2-5.2c2.8,0,5.3,2.5,5.3,5.3
		C55.1,52.9,52.9,55.3,49.9,55.3z"/>
</g>
</svg>
