<svg version="1.1" xmlns="http://www.w3.org/2000/svg" xmlns:xlink="http://www.w3.org/1999/xlink" x="0px" y="0px" viewBox="0 0 452 412" enable-background="new 0 0 452 412" xml:space="preserve" id="el_oXm_Lcyhd" height="412" width="452"><style>@-webkit-keyframes el_gpUKnJT7vh-_8cFtopxZE_Animation{5.56%{-webkit-transform: rotate(0deg);transform: rotate(0deg);}96.67%{-webkit-transform: rotate(-90deg);transform: rotate(-90deg);}0%{-webkit-transform: rotate(0deg);transform: rotate(0deg);}100%{-webkit-transform: rotate(-90deg);transform: rotate(-90deg);}}@keyframes el_gpUKnJT7vh-_8cFtopxZE_Animation{5.56%{-webkit-transform: rotate(0deg);transform: rotate(0deg);}96.67%{-webkit-transform: rotate(-90deg);transform: rotate(-90deg);}0%{-webkit-transform: rotate(0deg);transform: rotate(0deg);}100%{-webkit-transform: rotate(-90deg);transform: rotate(-90deg);}}@-webkit-keyframes el_UOCFZsNAVfA_iq_TP62TD_Animation{0%{-webkit-transform: rotate(0deg);transform: rotate(0deg);}100%{-webkit-transform: rotate(90deg);transform: rotate(90deg);}}@keyframes el_UOCFZsNAVfA_iq_TP62TD_Animation{0%{-webkit-transform: rotate(0deg);transform: rotate(0deg);}100%{-webkit-transform: rotate(90deg);transform: rotate(90deg);}}@-webkit-keyframes el_lHfbFOoqioU_Animation{3.33%{opacity: 0;}16.67%{opacity: 1;}0%{opacity: 0;}100%{opacity: 1;}}@keyframes el_lHfbFOoqioU_Animation{3.33%{opacity: 0;}16.67%{opacity: 1;}0%{opacity: 0;}100%{opacity: 1;}}@-webkit-keyframes el_ZWBeF-fNwJM_Animation{11.11%{opacity: 0;}26.67%{opacity: 1;}0%{opacity: 0;}100%{opacity: 1;}}@keyframes el_ZWBeF-fNwJM_Animation{11.11%{opacity: 0;}26.67%{opacity: 1;}0%{opacity: 0;}100%{opacity: 1;}}@-webkit-keyframes el_squvDvjiKGK_9u86RM9dk_Animation{50%{-webkit-transform: translate(0px, 50px);transform: translate(0px, 50px);}63.33%{-webkit-transform: translate(0px, 0px);transform: translate(0px, 0px);}0%{-webkit-transform: translate(0px, 50px);transform: translate(0px, 50px);}100%{-webkit-transform: translate(0px, 0px);transform: translate(0px, 0px);}}@keyframes el_squvDvjiKGK_9u86RM9dk_Animation{50%{-webkit-transform: translate(0px, 50px);transform: translate(0px, 50px);}63.33%{-webkit-transform: translate(0px, 0px);transform: translate(0px, 0px);}0%{-webkit-transform: translate(0px, 50px);transform: translate(0px, 50px);}100%{-webkit-transform: translate(0px, 0px);transform: translate(0px, 0px);}}@-webkit-keyframes el_I-amvquJLaZ_n_5TS--3o_Animation{10%{-webkit-transform: scale(0, 0);transform: scale(0, 0);}20%{-webkit-transform: scale(1, 1);transform: scale(1, 1);}0%{-webkit-transform: scale(0, 0);transform: scale(0, 0);}100%{-webkit-transform: scale(1, 1);transform: scale(1, 1);}}@keyframes el_I-amvquJLaZ_n_5TS--3o_Animation{10%{-webkit-transform: scale(0, 0);transform: scale(0, 0);}20%{-webkit-transform: scale(1, 1);transform: scale(1, 1);}0%{-webkit-transform: scale(0, 0);transform: scale(0, 0);}100%{-webkit-transform: scale(1, 1);transform: scale(1, 1);}}@-webkit-keyframes el_bfMIjMIIZ1Y_vkrjOZrRz_Animation{6.67%{-webkit-transform: scale(0, 0);transform: scale(0, 0);}16.67%{-webkit-transform: scale(1, 1);transform: scale(1, 1);}0%{-webkit-transform: scale(0, 0);transform: scale(0, 0);}100%{-webkit-transform: scale(1, 1);transform: scale(1, 1);}}@keyframes el_bfMIjMIIZ1Y_vkrjOZrRz_Animation{6.67%{-webkit-transform: scale(0, 0);transform: scale(0, 0);}16.67%{-webkit-transform: scale(1, 1);transform: scale(1, 1);}0%{-webkit-transform: scale(0, 0);transform: scale(0, 0);}100%{-webkit-transform: scale(1, 1);transform: scale(1, 1);}}#el_oXm_Lcyhd *{-webkit-animation-duration: 3s;animation-duration: 3s;-webkit-animation-iteration-count: infinite;animation-iteration-count: infinite;-webkit-animation-timing-function: cubic-bezier(0, 0, 1, 1);animation-timing-function: cubic-bezier(0, 0, 1, 1);}#el_GsvWLHKCAu{opacity: 9.000000e-02;}#el_2IHy-Zj24I{opacity: 0.7;}#el_P_ExCMKBgm{fill: url(#SVGID_1_);}#el_vR3fQBwnBW{fill: url(#SVGID_2_);}#el_o_4DSyJEq0{fill: url(#SVGID_3_);}#el_G0vY3XUUbO{fill: url(#SVGID_4_);}#el_aoP9dvoYRY{fill: url(#SVGID_5_);}#el_TT0i96J5JQS{fill: url(#SVGID_6_);}#el_QL9zP20yCpM{fill: url(#SVGID_7_);}#el_KmHe-6AZ-IG{fill: url(#SVGID_8_);}#el_N9cQPwjIpr0{fill: url(#SVGID_9_);}#el_RcicpaQsfq-{fill: url(#SVGID_10_);}#el_yzud0H6ZLdr{fill: url(#SVGID_11_);}#el_fCXp948ZQ26{fill: url(#SVGID_12_);}#el_eT_wg7oyuMe{fill: url(#SVGID_13_);}#el_T99CMHh1sqV{fill: url(#SVGID_14_);}#el_oRC0-WTW4Tm{fill: url(#SVGID_15_);}#el_Z90iuk6I2UX{fill: url(#SVGID_16_);}#el_j_oitWMBPtJ{fill: url(#SVGID_17_);}#el_YH9a2aA_Yjy{fill: url(#SVGID_18_);}#el_-9CkuWl-0Ef{fill: url(#SVGID_19_);}#el_N9H4J2jk3ys{fill: url(#SVGID_20_);}#el_On41H10PLaz{fill: url(#SVGID_21_);}#el_t6bv5pO1_52{opacity: 0.38;}#el_dRp98MQriHO{fill: #FFFFFF;}#el_CfTLidXz2Nn{fill: #FFFFFF;}#el_IrazicW4EcN{fill: #FFFFFF;}#el_su6U68Xz3oS{fill: #FFFFFF;}#el_fT8B3T1ofEp{fill: #FFFFFF;}#el_PIulccM64P8{fill: #FFFFFF;}#el_c4WNbpWeu42{fill: #FFFFFF;}#el_eYmpeb_CBxN{fill: #FFFFFF;}#el_XQeGCEtvhm0{fill: #FFFFFF;}#el_j9UWoGt08XS{fill: #42C08B;}#el_gbUtdu7aX4k{opacity: 0.2;}#el_-O6eSiM2dox{fill: #BDCCD4;}#el_ulpQ9Ig8KWU{fill: #1C1C1C;}#el_GPEPZj8Dcwj{fill: #EAD4B9;}#el_qTxEhNpx5pB{fill: #EAD4B9;}#el_o7cSQIMhcnr{fill: #3F5359;}#el_2XfzF6Q1WGD{fill: #FFFFFF;}#el__Cv115GwDEI{fill: #6B63FF;}#el_xmonySdHPbB{fill: #ADADAD;}#el_QrckHqZTPu7{fill: #9C9C9C;}#el_WJFZs5-oWyX{fill: #ADADAD;}#el_Q-WlLQ8XMPe{fill: #1C1C1C;}#el_kLDEn5j334G{fill: #1C1C1C;}#el_i8xzuDjrf0j{fill: none;stroke: #FFFFFF;stroke-width: 0.6367;}#el_7Ap1Hn0wi5E{fill: none;stroke: #FFFFFF;stroke-width: 0.6367;}#el_UOCFZsNAVfA{fill: #FFFFFF;}#el_V-irHlfiQyQ{fill: #FFFFFF;}#el_-YaArj6Byux{fill: #FFFFFF;}#el_bfMIjMIIZ1Y_vkrjOZrRz{-webkit-animation-name: el_bfMIjMIIZ1Y_vkrjOZrRz_Animation;animation-name: el_bfMIjMIIZ1Y_vkrjOZrRz_Animation;-webkit-animation-timing-function: cubic-bezier(0, 0, 0.58, 1);animation-timing-function: cubic-bezier(0, 0, 0.58, 1);-webkit-transform-origin: 50% 100%;transform-origin: 50% 100%;transform-box: fill-box;}#el_I-amvquJLaZ_n_5TS--3o{-webkit-animation-name: el_I-amvquJLaZ_n_5TS--3o_Animation;animation-name: el_I-amvquJLaZ_n_5TS--3o_Animation;-webkit-animation-timing-function: cubic-bezier(0, 0, 0.58, 1);animation-timing-function: cubic-bezier(0, 0, 0.58, 1);-webkit-transform-origin: 50% 100%;transform-origin: 50% 100%;transform-box: fill-box;}#el_squvDvjiKGK_9u86RM9dk{-webkit-animation-name: el_squvDvjiKGK_9u86RM9dk_Animation;animation-name: el_squvDvjiKGK_9u86RM9dk_Animation;-webkit-transform-origin: 50% 50%;transform-origin: 50% 50%;transform-box: fill-box;}#el_ZWBeF-fNwJM{-webkit-animation-name: el_ZWBeF-fNwJM_Animation;animation-name: el_ZWBeF-fNwJM_Animation;}#el_lHfbFOoqioU{-webkit-animation-name: el_lHfbFOoqioU_Animation;animation-name: el_lHfbFOoqioU_Animation;}#el_UOCFZsNAVfA_iq_TP62TD{-webkit-animation-name: el_UOCFZsNAVfA_iq_TP62TD_Animation;animation-name: el_UOCFZsNAVfA_iq_TP62TD_Animation;-webkit-transform-origin: 50% 50%;transform-origin: 50% 50%;transform-box: fill-box;}#el_gpUKnJT7vh-_8cFtopxZE{-webkit-animation-name: el_gpUKnJT7vh-_8cFtopxZE_Animation;animation-name: el_gpUKnJT7vh-_8cFtopxZE_Animation;-webkit-transform-origin: 50% 50%;transform-origin: 50% 50%;transform-box: fill-box;}</style>
<g id="el_GsvWLHKCAu">
	<g id="el_2IHy-Zj24I">
		
			<linearGradient id="SVGID_1_" gradientUnits="userSpaceOnUse" x1="-1556.1202" y1="146.252" x2="-1519.4268" y2="69.3367" gradientTransform="matrix(-0.2054 7.642068e-04 3.805368e-03 1 -10.6123 57.3314)">
			<stop offset="0" style="stop-color:#F49940"/>
			<stop offset="1" style="stop-color:#F5C43C"/>
		</linearGradient>
		<path d="M304.9,173.9l2,0c4.7,0,8.5-3.8,8.5-8.5l0-0.3c0-4.7-3.8-8.5-8.5-8.5l-2,0c-4.7,0-8.5,3.8-8.5,8.5&#10;&#9;&#9;&#9;l0,0.3C296.4,170.1,300.2,173.9,304.9,173.9z" id="el_P_ExCMKBgm"/>
		<g id="el_UYdBp_l5CB">
			<g id="el_NWl70ngNOe">
				<g id="el_1lWm1Ph3Ne">
					<g id="el_-ik4fbtGW5">
						
							<linearGradient id="SVGID_2_" gradientUnits="userSpaceOnUse" x1="389.0537" y1="442.0857" x2="429.0127" y2="359.7215" gradientTransform="matrix(-0.424 0.9057 0.9057 0.424 -29.2591 -181.9667)">
							<stop offset="0" style="stop-color:#ED415C"/>
							<stop offset="1" style="stop-color:#F38449"/>
						</linearGradient>
						<path d="M172.2,358.5l0,0.2c0,3.6-2.9,6.6-6.5,6.6l-58.1,0.2c-3.6,0-6.6-2.9-6.6-6.5l0-0.2&#10;&#9;&#9;&#9;&#9;&#9;&#9;&#9;c0-3.6,2.9-6.6,6.5-6.6l58.1-0.2C169.3,352,172.2,354.9,172.2,358.5z" id="el_vR3fQBwnBW"/>
					</g>
					<g id="el_05nkw7Pcy2">
						
							<linearGradient id="SVGID_3_" gradientUnits="userSpaceOnUse" x1="407.2573" y1="450.9171" x2="447.2159" y2="368.5535" gradientTransform="matrix(-0.424 0.9057 0.9057 0.424 -29.2591 -181.9667)">
							<stop offset="0" style="stop-color:#ED415C"/>
							<stop offset="1" style="stop-color:#F38449"/>
						</linearGradient>
						<path d="M117.7,385.6l0-0.2c0-3.6,2.9-6.6,6.5-6.6l15.4-0.1c-3.6,0-6.6-2.9-6.6-6.5l0-0.2&#10;&#9;&#9;&#9;&#9;&#9;&#9;&#9;c0-3.6,2.9-6.6,6.5-6.6l58.1-0.2c3.6,0,6.6,2.9,6.6,6.5l0,0.2c0,3.6-2.9,6.6-6.5,6.6l-15.4,0.1c3.6,0,6.6,2.9,6.6,6.5l0,0.2&#10;&#9;&#9;&#9;&#9;&#9;&#9;&#9;c0,3.6-2.9,6.6-6.5,6.6l-58.1,0.2C120.7,392.2,117.7,389.2,117.7,385.6z" id="el_o_4DSyJEq0"/>
					</g>
				</g>
			</g>
			
				<linearGradient id="SVGID_4_" gradientUnits="userSpaceOnUse" x1="404.7873" y1="472.7829" x2="412.1267" y2="457.2887" gradientTransform="matrix(-0.424 0.9057 0.9057 0.424 -29.2591 -181.9667)">
				<stop offset="0" style="stop-color:#ED415C"/>
				<stop offset="1" style="stop-color:#F38449"/>
			</linearGradient>
			<path d="M216.3,391.8L216.3,391.8c3.6,0,6.5-3,6.5-6.6l0-0.2c0-3.6-3-6.5-6.6-6.5l0,0&#10;&#9;&#9;&#9;&#9;c-3.6,0-6.5,3-6.5,6.6l0,0.2C209.7,388.9,212.7,391.8,216.3,391.8z" id="el_G0vY3XUUbO"/>
		</g>
		<g id="el_7KFEiIwHjd">
			<g id="el_XXWHiILayN">
				<g id="el_GXJPX6fJeK">
					
						<linearGradient id="SVGID_5_" gradientUnits="userSpaceOnUse" x1="201.714" y1="334.3495" x2="262.0607" y2="203.0692" gradientTransform="matrix(-0.424 0.9057 0.9057 0.424 -29.2591 -181.9667)">
						<stop offset="0" style="stop-color:#85C7C2"/>
						<stop offset="1" style="stop-color:#C7E6E2"/>
					</linearGradient>
					<path d="M128.9,141.4l0,0.3c0,4.7-3.8,8.5-8.5,8.5l-75.5,0.3c-4.7,0-8.5-3.8-8.5-8.5l0-0.3&#10;&#9;&#9;&#9;&#9;&#9;&#9;c0-4.7,3.8-8.5,8.5-8.5l75.5-0.3C125,132.9,128.8,136.7,128.9,141.4z" id="el_aoP9dvoYRY"/>
				</g>
				<g id="el_Y6qLglvXL38">
					
						<linearGradient id="SVGID_6_" gradientUnits="userSpaceOnUse" x1="224.9826" y1="345.0456" x2="285.329" y2="213.7658" gradientTransform="matrix(-0.424 0.9057 0.9057 0.424 -29.2591 -181.9667)">
						<stop offset="0" style="stop-color:#85C7C2"/>
						<stop offset="1" style="stop-color:#C7E6E2"/>
					</linearGradient>
					<path d="M58.1,176.6l0-0.3c0-4.7,3.8-8.5,8.5-8.5l20-0.1c-4.7,0-8.5-3.8-8.5-8.5l0-0.3&#10;&#9;&#9;&#9;&#9;&#9;&#9;c0-4.7,3.8-8.5,8.5-8.5l75.5-0.3c4.7,0,8.5,3.8,8.5,8.5l0,0.3c0,4.7-3.8,8.5-8.5,8.5l-20,0.1c4.7,0,8.5,3.8,8.5,8.5l0,0.3&#10;&#9;&#9;&#9;&#9;&#9;&#9;c0,4.7-3.8,8.5-8.5,8.5L66.6,185C61.9,185.1,58.1,181.3,58.1,176.6z" id="el_TT0i96J5JQS"/>
				</g>
			</g>
		</g>
		
			<linearGradient id="SVGID_7_" gradientUnits="userSpaceOnUse" x1="230.3835" y1="353.2751" x2="238.8532" y2="334.2183" gradientTransform="matrix(-0.424 0.9057 0.9057 0.424 -29.2591 -181.9667)">
			<stop offset="0" style="stop-color:#85C7C2"/>
			<stop offset="1" style="stop-color:#C7E6E2"/>
		</linearGradient>
		<path d="M185.7,185L185.7,185c4.7,0,8.5-3.8,8.5-8.5l0-0.3c0-4.7-3.8-8.5-8.5-8.5l0,0&#10;&#9;&#9;&#9;c-4.7,0-8.5,3.8-8.5,8.5l0,0.3C177.2,181.2,181,185,185.7,185z" id="el_QL9zP20yCpM"/>
		<g id="el_xjF7twW2aK1">
			<g id="el_1sF9lj7EWKB">
				<g id="el_UhAQXSnxvd8">
					
						<linearGradient id="SVGID_8_" gradientUnits="userSpaceOnUse" x1="174.2484" y1="522.6442" x2="223.7865" y2="522.6442" gradientTransform="matrix(-0.424 0.9057 0.9057 0.424 -29.2591 -181.9667)">
						<stop offset="0" style="stop-color:#ED415C"/>
						<stop offset="1" style="stop-color:#F38449"/>
					</linearGradient>
					<path d="M405.9,219.5l0,0.3c0,4.7-3.8,8.5-8.5,8.5l-75.5,0.3c-4.7,0-8.5-3.8-8.5-8.5l0-0.3&#10;&#9;&#9;&#9;&#9;&#9;&#9;c0-4.7,3.8-8.5,8.5-8.5l75.5-0.3C402.1,211,405.9,214.8,405.9,219.5z" id="el_KmHe-6AZ-IG"/>
				</g>
				<g id="el_CPPKJbRQ8xM">
					
						<linearGradient id="SVGID_9_" gradientUnits="userSpaceOnUse" x1="174.5078" y1="562.5729" x2="224.0459" y2="562.5729" gradientTransform="matrix(-0.424 0.9057 0.9057 0.424 -29.2591 -181.9667)">
						<stop offset="0" style="stop-color:#ED415C"/>
						<stop offset="1" style="stop-color:#F38449"/>
					</linearGradient>
					<path d="M349.5,237.3l0-0.3c0-4.7,3.8-8.5,8.5-8.5l75.5-0.3c4.7,0,8.5,3.8,8.5,8.5l0,0.3&#10;&#9;&#9;&#9;&#9;&#9;&#9;c0,4.7-3.8,8.5-8.5,8.5l-75.5,0.3C353.4,245.8,349.5,242,349.5,237.3z" id="el_N9cQPwjIpr0"/>
				</g>
			</g>
		</g>
		<g id="el_BY1IA7TFHx9">
			<g id="el_xaAipU-2Fbm">
				<g id="el_pMWoCHi8fx7">
					
						<linearGradient id="SVGID_10_" gradientUnits="userSpaceOnUse" x1="102.3015" y1="384.2394" x2="151.8396" y2="384.2394" gradientTransform="matrix(-0.424 0.9057 0.9057 0.424 -29.2591 -181.9667)">
						<stop offset="0" style="stop-color:#ED415C"/>
						<stop offset="1" style="stop-color:#F38449"/>
					</linearGradient>
					<path d="M311.1,95.7l0,0.3c0,4.7-3.8,8.5-8.5,8.5l-75.5,0.3c-4.7,0-8.5-3.8-8.5-8.5l0-0.3&#10;&#9;&#9;&#9;&#9;&#9;&#9;c0-4.7,3.8-8.5,8.5-8.5l75.5-0.3C307.3,87.2,311.1,91,311.1,95.7z" id="el_RcicpaQsfq-"/>
				</g>
			</g>
		</g>
		
			<linearGradient id="SVGID_11_" gradientUnits="userSpaceOnUse" x1="119.6244" y1="541.7783" x2="156.3262" y2="464.8455" gradientTransform="matrix(-0.424 0.9057 0.9057 0.424 -29.2591 -181.9667)">
			<stop offset="0" style="stop-color:#F49940"/>
			<stop offset="1" style="stop-color:#F5C43C"/>
		</linearGradient>
		<path d="M323.6,165.3l0-0.3c0-4.7,3.8-8.5,8.5-8.5l19.5-0.1c-4.7,0-8.5-3.8-8.5-8.5l0-0.3&#10;&#9;&#9;&#9;c0-4.7,3.8-8.5,8.5-8.5l75.5-0.3c4.7,0,8.5,3.8,8.5,8.5l0,0.3c0,4.7-3.8,8.5-8.5,8.5l-51.5,0.2l32-0.1c4.7,0,8.5,3.8,8.5,8.5&#10;&#9;&#9;&#9;l0,0.3c0,4.7-3.8,8.5-8.5,8.5l-75.5,0.3C327.4,173.8,323.6,170,323.6,165.3z" id="el_yzud0H6ZLdr"/>
		<g id="el_4PTrZ2fyjAt">
			<g id="el_2ZlNulnv614">
				<g id="el_72rVK12CtCu">
					
						<linearGradient id="SVGID_12_" gradientUnits="userSpaceOnUse" x1="263.4433" y1="425.8704" x2="293.2488" y2="360.8401" gradientTransform="matrix(-0.424 0.9057 0.9057 0.424 -29.2591 -181.9667)">
						<stop offset="0" style="stop-color:#85C7C2"/>
						<stop offset="1" style="stop-color:#C7E6E2"/>
					</linearGradient>
					<path d="M212.7,237.6l0-0.3c0-4.3,3.5-7.9,7.8-7.9l69.9-0.3c4.3,0,7.9,3.5,7.9,7.8l0,0.3&#10;&#9;&#9;&#9;&#9;&#9;&#9;c0,4.3-3.5,7.9-7.8,7.9l-69.9,0.3C216.3,245.4,212.7,241.9,212.7,237.6z" id="el_fCXp948ZQ26"/>
				</g>
				<g id="el_jbzFL5NR1NM">
					
						<linearGradient id="SVGID_13_" gradientUnits="userSpaceOnUse" x1="249.1161" y1="419.3036" x2="278.9217" y2="354.2733" gradientTransform="matrix(-0.424 0.9057 0.9057 0.424 -29.2591 -181.9667)">
						<stop offset="0" style="stop-color:#85C7C2"/>
						<stop offset="1" style="stop-color:#C7E6E2"/>
					</linearGradient>
					<path d="M269,229.2l-69.9,0.3c-4.3,0-7.9-3.5-7.9-7.8l0-0.3c0-4.3,3.5-7.9,7.8-7.9l69.9-0.3&#10;&#9;&#9;&#9;&#9;&#9;&#9;c4.3,0,7.9,3.5,7.9,7.8l0,0.3C276.9,225.7,273.4,229.2,269,229.2z" id="el_eT_wg7oyuMe"/>
				</g>
			</g>
		</g>
		<g id="el_Z-WzdpsLvH7">
			
				<linearGradient id="SVGID_14_" gradientUnits="userSpaceOnUse" x1="366.611" y1="322.5225" x2="405.4641" y2="235.3014" gradientTransform="matrix(-0.424 0.9057 0.9057 0.424 -29.2591 -181.9667)">
				<stop offset="0" style="stop-color:#F49940"/>
				<stop offset="1" style="stop-color:#F5C43C"/>
			</linearGradient>
			<path d="M56.1,286.7l0-0.2c0-3.5,2.8-6.4,6.3-6.4l56.5-0.2c3.5,0,6.4,2.8,6.4,6.3l0,0.2&#10;&#9;&#9;&#9;&#9;c0,3.5-2.8,6.4-6.3,6.4l-56.5,0.2C59,293.1,56.2,290.2,56.1,286.7z" id="el_T99CMHh1sqV"/>
			
				<linearGradient id="SVGID_15_" gradientUnits="userSpaceOnUse" x1="355.135" y1="317.4102" x2="393.9881" y2="230.1891" gradientTransform="matrix(-0.424 0.9057 0.9057 0.424 -29.2591 -181.9667)">
				<stop offset="0" style="stop-color:#F49940"/>
				<stop offset="1" style="stop-color:#F5C43C"/>
			</linearGradient>
			<path d="M101.7,280l-56.5,0.2c-3.5,0-6.4-2.8-6.4-6.3l0-0.2c0-3.5,2.8-6.4,6.3-6.4l56.5-0.2&#10;&#9;&#9;&#9;&#9;c3.5,0,6.4,2.8,6.4,6.3l0,0.2C108.1,277.1,105.2,280,101.7,280z" id="el_oRC0-WTW4Tm"/>
		</g>
		
			<linearGradient id="SVGID_16_" gradientUnits="userSpaceOnUse" x1="249.7983" y1="419.6165" x2="279.6039" y2="354.5861" gradientTransform="matrix(-0.424 0.9057 0.9057 0.424 -29.2591 -181.9667)">
			<stop offset="0" style="stop-color:#85C7C2"/>
			<stop offset="1" style="stop-color:#C7E6E2"/>
		</linearGradient>
		<path d="M164.5,229.6l12.6,0c4.3,0,7.9-3.6,7.8-7.9l0-0.3c0-4.3-3.6-7.9-7.9-7.8l-12.6,0&#10;&#9;&#9;&#9;c-4.3,0-7.9,3.6-7.8,7.9l0,0.3C156.6,226.1,160.1,229.6,164.5,229.6z" id="el_Z90iuk6I2UX"/>
		<g id="el_a-RnwVC9F_8">
			
				<linearGradient id="SVGID_17_" gradientUnits="userSpaceOnUse" x1="317.3175" y1="518.4146" x2="358.3092" y2="428.7454" gradientTransform="matrix(-0.424 0.9057 0.9057 0.424 -29.2591 -181.9667)">
				<stop offset="0" style="stop-color:#F49940"/>
				<stop offset="1" style="stop-color:#F5C43C"/>
			</linearGradient>
			<path d="M243.1,325.3l0-0.3c0-4.2,3.3-7.6,7.5-7.6l67-0.3c4.2,0,7.6,3.3,7.6,7.5l0,0.3&#10;&#9;&#9;&#9;&#9;c0,4.2-3.3,7.6-7.5,7.6l-67,0.3C246.5,332.8,243.1,329.5,243.1,325.3z" id="el_j_oitWMBPtJ"/>
			
				<linearGradient id="SVGID_18_" gradientUnits="userSpaceOnUse" x1="303.5947" y1="512.1411" x2="344.5864" y2="422.4718" gradientTransform="matrix(-0.424 0.9057 0.9057 0.424 -29.2591 -181.9667)">
				<stop offset="0" style="stop-color:#F49940"/>
				<stop offset="1" style="stop-color:#F5C43C"/>
			</linearGradient>
			<path d="M297.1,317.3l-67,0.3c-4.2,0-7.6-3.3-7.6-7.5l0-0.3c0-4.2,3.3-7.6,7.5-7.6l67-0.3&#10;&#9;&#9;&#9;&#9;c4.2,0,7.6,3.3,7.6,7.5l0,0.3C304.6,313.9,301.3,317.3,297.1,317.3z" id="el_YH9a2aA_Yjy"/>
		</g>
		
			<linearGradient id="SVGID_19_" gradientUnits="userSpaceOnUse" x1="-345.0353" y1="317.3453" x2="-304.0488" y2="227.6875" gradientTransform="matrix(-0.3315 1.243626e-03 3.805368e-03 1 97.2284 56.9293)">
			<stop offset="0" style="stop-color:#F49940"/>
			<stop offset="1" style="stop-color:#F5C43C"/>
		</linearGradient>
		<path d="M196.9,317.7l12.1,0c4.2,0,7.5-3.4,7.5-7.6l0-0.3c0-4.2-3.4-7.5-7.6-7.5l-12.1,0&#10;&#9;&#9;&#9;c-4.2,0-7.5,3.4-7.5,7.6l0,0.3C189.3,314.3,192.7,317.7,196.9,317.7z" id="el_-9CkuWl-0Ef"/>
		<g id="el_6zwfVqiEghL">
			<g id="el_aKQ1GROyeYX">
				<g id="el_HbT5-1YeZcN">
					
						<linearGradient id="SVGID_20_" gradientUnits="userSpaceOnUse" x1="72.202" y1="376.2505" x2="106.0808" y2="302.141" gradientTransform="matrix(-0.424 0.9057 0.9057 0.424 -29.2591 -181.9667)">
						<stop offset="0" style="stop-color:#85C7C2"/>
						<stop offset="1" style="stop-color:#C7E6E2"/>
					</linearGradient>
					<path d="M229.2,43l0-0.2c0-3.4,2.8-6.2,6.2-6.3l55.4-0.2c3.4,0,6.2,2.8,6.3,6.2l0,0.2&#10;&#9;&#9;&#9;&#9;&#9;&#9;c0,3.4-2.8,6.2-6.2,6.3l-55.4,0.2C232,49.2,229.2,46.5,229.2,43z" id="el_N9H4J2jk3ys"/>
				</g>
				<g id="el_fC4eFsbEj7F">
					
						<linearGradient id="SVGID_21_" gradientUnits="userSpaceOnUse" x1="60.8605" y1="371.0656" x2="94.7392" y2="296.956" gradientTransform="matrix(-0.424 0.9057 0.9057 0.424 -29.2591 -181.9667)">
						<stop offset="0" style="stop-color:#85C7C2"/>
						<stop offset="1" style="stop-color:#C7E6E2"/>
					</linearGradient>
					<path d="M273.8,36.4l-55.4,0.2c-3.4,0-6.2-2.8-6.3-6.2l0-0.2c0-3.4,2.8-6.2,6.2-6.3l55.4-0.2&#10;&#9;&#9;&#9;&#9;&#9;&#9;c3.4,0,6.2,2.8,6.3,6.2l0,0.2C280,33.6,277.2,36.4,273.8,36.4z" id="el_On41H10PLaz"/>
				</g>
			</g>
		</g>
	</g>
	<g id="el_t6bv5pO1_52">
		<path fill-rule="evenodd" clip-rule="evenodd" d="M315.5,287h8.2c2.1,0,3.7,1.7,3.7,3.7c0,2.1-1.7,3.7-3.7,3.7&#10;&#9;&#9;&#9;h-1.5c-2.1,0-3.7,1.7-3.7,3.7v0c0,2.1,1.7,3.7,3.7,3.7H345c2.1,0,3.7-1.7,3.7-3.7v0c0-2.1-1.7-3.7-3.7-3.7h-3.9&#10;&#9;&#9;&#9;c-2.1,0-3.7-1.7-3.7-3.7c0-2.1,1.7-3.7,3.7-3.7H363c2.1,0,3.7-1.7,3.7-3.7l0,0c0-2.1-1.7-3.7-3.7-3.7h-47.5&#10;&#9;&#9;&#9;c-2.1,0-3.7,1.7-3.7,3.7l0,0C311.8,285.4,313.4,287,315.5,287z" id="el_dRp98MQriHO"/>
		<path fill-rule="evenodd" clip-rule="evenodd" d="M143.3,289.1h-8.2c-2.1,0-3.7,1.7-3.7,3.7c0,2.1,1.7,3.7,3.7,3.7&#10;&#9;&#9;&#9;h1.5c2.1,0,3.7,1.7,3.7,3.7v0c0,2.1-1.7,3.7-3.7,3.7h-22.8c-2.1,0-3.7-1.7-3.7-3.7v0c0-2.1,1.7-3.7,3.7-3.7h3.9&#10;&#9;&#9;&#9;c2.1,0,3.7-1.7,3.7-3.7c0-2.1-1.7-3.7-3.7-3.7H99.3c-2.1,0-3.7-1.7-3.7-3.7v0c0-2.1,1.7-3.7,3.7-3.7h44c2.1,0,3.7,1.7,3.7,3.7v0&#10;&#9;&#9;&#9;C147,287.5,145.3,289.1,143.3,289.1z" id="el_CfTLidXz2Nn"/>
		<path fill-rule="evenodd" clip-rule="evenodd" d="M242,249.3h-8.2c-2.1,0-3.7,1.7-3.7,3.7c0,2.1,1.7,3.7,3.7,3.7&#10;&#9;&#9;&#9;h1.5c2.1,0,3.7,1.7,3.7,3.7v0c0,2.1-1.7,3.7-3.7,3.7h-22.8c-2.1,0-3.7-1.7-3.7-3.7v0c0-2.1,1.7-3.7,3.7-3.7h3.9&#10;&#9;&#9;&#9;c2.1,0,3.7-1.7,3.7-3.7c0-2.1-1.7-3.7-3.7-3.7H198c-2.1,0-3.7-1.7-3.7-3.7l0,0c0-2.1,1.7-3.7,3.7-3.7h44c2.1,0,3.7,1.7,3.7,3.7&#10;&#9;&#9;&#9;l0,0C245.8,247.6,244.1,249.3,242,249.3z" id="el_IrazicW4EcN"/>
		<path fill-rule="evenodd" clip-rule="evenodd" d="M265.4,249.3c-14.7,0,5.4,0-9.3,0c-2.1,0-3.7-1.7-3.7-3.7l0,0&#10;&#9;&#9;&#9;c0-2.1,1.7-3.7,3.7-3.7h9.3c2.1,0,3.7,1.7,3.7,3.7l0,0C269.2,247.6,267.5,249.3,265.4,249.3z" id="el_su6U68Xz3oS"/>
		<path fill-rule="evenodd" clip-rule="evenodd" d="M92.4,350.7c-14.7,0,5.4,0-9.3,0c-2.1,0-3.7-1.7-3.7-3.7v0&#10;&#9;&#9;&#9;c0-2.1,1.7-3.7,3.7-3.7h9.3c2.1,0,3.7,1.7,3.7,3.7v0C96.1,349.1,94.4,350.7,92.4,350.7z" id="el_fT8B3T1ofEp"/>
		<path fill-rule="evenodd" clip-rule="evenodd" d="M369,350.8c-14.7,0,5.4,0-9.3,0c-2.1,0-3.7-1.7-3.7-3.7v0&#10;&#9;&#9;&#9;c0-2.1,1.7-3.7,3.7-3.7h9.3c2.1,0,3.7,1.7,3.7,3.7v0C372.7,349.2,371,350.8,369,350.8z" id="el_PIulccM64P8"/>
		<path fill-rule="evenodd" clip-rule="evenodd" d="M220.3,224.3c-14.7,0-12.6,0-27.2,0c-2.1,0-3.7-1.7-3.7-3.7l0,0&#10;&#9;&#9;&#9;c0-2.1,1.7-3.7,3.7-3.7h27.2c2.1,0,3.7,1.7,3.7,3.7l0,0C224,222.6,222.4,224.3,220.3,224.3z" id="el_c4WNbpWeu42"/>
		<path fill-rule="evenodd" clip-rule="evenodd" d="M276.4,224.2c-14.7,0,5.4,0-9.3,0c-2.1,0-3.7-1.7-3.7-3.7v0&#10;&#9;&#9;&#9;c0-2.1,1.7-3.7,3.7-3.7h9.3c2.1,0,3.7,1.7,3.7,3.7v0C280.2,222.5,278.5,224.2,276.4,224.2z" id="el_eYmpeb_CBxN"/>
		<path fill-rule="evenodd" clip-rule="evenodd" d="M199.4,311.3c-14.7,0,5.4,0-9.3,0c-2.1,0-3.7-1.7-3.7-3.7v0&#10;&#9;&#9;&#9;c0-2.1,1.7-3.7,3.7-3.7h9.3c2.1,0,3.7,1.7,3.7,3.7v0C203.1,309.6,201.4,311.3,199.4,311.3z" id="el_XQeGCEtvhm0"/>
	</g>
</g>
<g id="el_bfMIjMIIZ1Y_vkrjOZrRz" data-animator-group="true" data-animator-type="2"><g id="el_bfMIjMIIZ1Y">
	<path d="M87.7,242.1c-4.5,0.4-13.7-21.6-14.7-24.5c-7.9-22.5-0.7-50.5,20.4-63c5.7-3.4,12.1-5.5,17.9-8.8&#10;&#9;&#9;c8.5-4.7,14.3-12.1,14.4-22c0.2-26.4,2.4-91.3,39.9-88.9c26.3,1.7,30.4,51.2,35.4,71.5c3.8,15.4,12.3,39.4,30.5,42.6&#10;&#9;&#9;c0,0,40,7.1,45.2,38c0,0,12.9,41.1-6,55.1C270.9,242,223,230.5,87.7,242.1z" id="el_j9UWoGt08XS"/>
</g></g>
<g id="el_I-amvquJLaZ_n_5TS--3o" data-animator-group="true" data-animator-type="2"><g id="el_I-amvquJLaZ">
	<path d="M105.1,239.8c0,0-11.2-32.2-1.6-45c0,0,9.8-12.5,19.5,5.8c0,0,15.4,19.8,25.3,1.2c0,0,11.8-50.7,28.8-52&#10;&#9;&#9;c0,0,16.3-2,21.2,24.4c0,0,7.2,35.3,21.7,29.6c0,0,36.7-13.5,43.5-4.3c0,0,8,10.3-8.2,40.4C255.4,239.8,209.2,235.2,105.1,239.8z" id="el_gbUtdu7aX4k"/>
</g></g>
<g id="el_nDse2hEYHdO">
	<g id="el_YM9tP8Wn55w">
		<path d="M235,151h-1.4v6.1c0,2.5-1.2,4.7-3,6.3c-1.8,1.6-4.4,2.6-7.1,2.6c-2.8,0-5.3-1-7.1-2.6&#10;&#9;&#9;&#9;c-1.9-1.6-3-3.8-3-6.3V151h-0.9c-8.7,0-16.7,3.6-22.4,9.4c-5.7,5.8-9.3,13.8-9.3,22.6V204h86.2V183c0-8.8-3.6-16.8-9.3-22.6&#10;&#9;&#9;&#9;C251.7,154.6,243.7,151,235,151z" id="el_-O6eSiM2dox"/>
		<path d="M258.6,159c-6.1-6.1-14.4-9.9-23.7-9.9h-1.4v-4.4h-20.3v4.4h-0.9c-9.2,0-17.6,3.8-23.7,9.9&#10;&#9;&#9;&#9;c-6.1,6.2-9.9,14.7-9.9,24v21.9c0,0.5,89.8,0.5,89.8,0V183C268.5,173.7,264.7,165.2,258.6,159z M266.7,204h-86.2V183&#10;&#9;&#9;&#9;c0-8.8,3.6-16.8,9.3-22.6c5.8-5.8,13.7-9.4,22.4-9.4h0.9v6.1c0,2.5,1.2,4.7,3,6.3c1.8,1.6,4.4,2.6,7.1,2.6c2.8,0,5.3-1,7.1-2.6&#10;&#9;&#9;&#9;c1.9-1.6,3-3.8,3-6.3V151h1.4c8.7,0,16.7,3.6,22.4,9.4c5.7,5.8,9.3,13.8,9.3,22.6V204z M231.8,146.4v10.7c0,1.9-0.9,3.7-2.4,4.9&#10;&#9;&#9;&#9;c-1.5,1.3-3.6,2.1-6,2.1c-2.3,0-4.4-0.8-6-2.1c-1.5-1.3-2.4-3-2.4-4.9v-10.7H231.8z" id="el_ulpQ9Ig8KWU"/>
		<path d="M215,157.1c0,1.9,0.9,3.7,2.4,4.9c1.5,1.3,3.6,2.1,6,2.1c2.3,0,4.4-0.8,6-2.1c1.5-1.3,2.4-3,2.4-4.9v-10.7&#10;&#9;&#9;&#9;H215V157.1z" id="el_GPEPZj8Dcwj"/>
	</g>
	<g id="el_squvDvjiKGK_9u86RM9dk" data-animator-group="true" data-animator-type="0"><g id="el_squvDvjiKGK">
		<path d="M223.9,99.5c-11.7-5.9-18.1-0.4-17.9,11.7v7.2v3v6.1c-0.2,15.1,6.2,22,17.9,14.7&#10;&#9;&#9;&#9;c11.7,7.4,18.1,0.4,17.9-14.7v-9.1h0v-7.2C242,99.2,235.6,93.6,223.9,99.5z" id="el_qTxEhNpx5pB"/>
		<path d="M223.8,86.3c-12.1,0-21.9,9.9-21.9,21.9v23c0,15.1,9.9,27.5,21.9,27.5c12.1,0,21.9-12.4,21.9-27.5v-23&#10;&#9;&#9;&#9;C245.7,96.2,235.8,86.3,223.8,86.3z M241.8,127.5c0.2,15.1-6.2,22-17.9,14.7c-11.7,7.4-18.1,0.4-17.9-14.7v-16.3&#10;&#9;&#9;&#9;c-0.2-12,6.2-17.6,17.9-11.7c11.7-5.9,18.1-0.4,17.9,11.7L241.8,127.5z" id="el_o7cSQIMhcnr"/>
	</g></g>
</g>
<g id="el_sUAlNi_e0oz">
	<g id="el_18pilrBq-sT">
		<path fill-rule="evenodd" clip-rule="evenodd" d="M168.6,161.8h106c4.7,0,8.6,3.3,8.6,7.4v58.4&#10;&#9;&#9;&#9;c0,4.1-3.9,7.4-8.6,7.4h-106c-4.7,0-8.6-3.3-8.6-7.4v-58.4C160.1,165.2,163.9,161.8,168.6,161.8L168.6,161.8z M168.6,165.4&#10;&#9;&#9;&#9;c-1.2,0-2.3,0.4-3.1,1.1c-0.8,0.7-1.3,1.6-1.3,2.7v29.2v29.2c0,1,0.5,2,1.3,2.7c0.8,0.7,1.9,1.1,3.1,1.1h53h53&#10;&#9;&#9;&#9;c1.2,0,2.3-0.4,3.1-1.1c0.8-0.7,1.3-1.6,1.3-2.7v-29.2v-29.2c0-1-0.5-2-1.3-2.7c-0.8-0.7-1.9-1.1-3.1-1.1h-53H168.6z" id="el_2XfzF6Q1WGD"/>
		<path fill-rule="evenodd" clip-rule="evenodd" d="M167.6,165.4h54.1h54.1c1.2,0,2.4,0.4,3.2,1.1&#10;&#9;&#9;&#9;c0.8,0.7,1.3,1.7,1.3,2.7v29.4V228c0,1.1-0.5,2-1.3,2.7c-0.8,0.7-1.9,1.1-3.2,1.1h-54.1h-54.1c-1.2,0-2.4-0.4-3.2-1.1&#10;&#9;&#9;&#9;c-0.8-0.7-1.3-1.7-1.3-2.7v-29.4v-29.4c0-1.1,0.5-2,1.3-2.7C165.2,165.9,166.3,165.4,167.6,165.4z" id="el__Cv115GwDEI"/>
		<path fill-rule="evenodd" clip-rule="evenodd" d="M161.1,235.1h121.1c0.6,0,1,0.5,1,1v4.5c0,0.6-0.5,1-1,1H161.1&#10;&#9;&#9;&#9;c-0.6,0-1-0.5-1-1v-4.5C160.1,235.5,160.5,235.1,161.1,235.1z" id="el_xmonySdHPbB"/>
		<path fill-rule="evenodd" clip-rule="evenodd" d="M160.6,238.4h122.1c0.3,0,0.5,0.2,0.5,0.5v2.3&#10;&#9;&#9;&#9;c0,0.3-0.2,0.5-0.5,0.5H160.6c-0.3,0-0.5-0.2-0.5-0.5v-2.3C160.1,238.6,160.3,238.4,160.6,238.4z" id="el_QrckHqZTPu7"/>
		<path fill-rule="evenodd" clip-rule="evenodd" d="M161.1,235.1h121.1c0.6,0,1,0.5,1,1v4.5c0,0.6-0.5,1-1,1H161.1&#10;&#9;&#9;&#9;c-0.6,0-1-0.5-1-1v-4.5C160.1,235.5,160.5,235.1,161.1,235.1z" id="el_WJFZs5-oWyX"/>
		<path fill-rule="evenodd" clip-rule="evenodd" d="M161.1,234.4h121.1c0.5,0,0.9,0.2,1.2,0.5&#10;&#9;&#9;&#9;c0.3,0.3,0.5,0.8,0.5,1.2v4.5c0,0.5-0.2,0.9-0.5,1.2c-0.3,0.3-0.8,0.5-1.2,0.5H161.1c-0.5,0-0.9-0.2-1.2-0.5&#10;&#9;&#9;&#9;c-0.3-0.3-0.5-0.8-0.5-1.2v-4.5c0-0.5,0.2-0.9,0.5-1.2C160.2,234.6,160.6,234.4,161.1,234.4L161.1,234.4z M282.2,235.8H161.1&#10;&#9;&#9;&#9;c-0.1,0-0.2,0-0.2,0.1c-0.1,0.1-0.1,0.1-0.1,0.2v4.5c0,0.1,0,0.2,0.1,0.2h0c0.1,0.1,0.1,0.1,0.2,0.1h121.1c0.1,0,0.2,0,0.2-0.1&#10;&#9;&#9;&#9;c0.1-0.1,0.1-0.1,0.1-0.2v-4.5c0-0.1,0-0.2-0.1-0.2C282.3,235.8,282.3,235.8,282.2,235.8z" id="el_Q-WlLQ8XMPe"/>
		<path fill-rule="evenodd" clip-rule="evenodd" d="M168.6,161.8h106c2.5,0,4.8,0.9,6.5,2.3c1.7,1.5,2.8,3.5,2.8,5.7&#10;&#9;&#9;&#9;v57.9c0,2.2-1.1,4.3-2.8,5.7c-1.7,1.4-4,2.3-6.5,2.3h-106c-2.5,0-4.8-0.9-6.5-2.3c-1.7-1.5-2.8-3.5-2.8-5.7v-57.9&#10;&#9;&#9;&#9;c0-2.2,1.1-4.3,2.8-5.7C163.8,162.7,166.1,161.8,168.6,161.8L168.6,161.8z M274.6,163.2h-106c-2.2,0-4.2,0.8-5.6,2&#10;&#9;&#9;&#9;c-1.4,1.2-2.3,2.8-2.3,4.7v57.9c0,1.8,0.9,3.5,2.3,4.7c1.4,1.2,3.4,2,5.6,2h106c2.2,0,4.2-0.8,5.6-2c1.4-1.2,2.3-2.8,2.3-4.7&#10;&#9;&#9;&#9;v-57.9c0-1.8-0.9-3.5-2.3-4.7C278.8,164,276.8,163.2,274.6,163.2z" id="el_kLDEn5j334G"/>
	</g>
</g>
<g id="el_ZWBeF-fNwJM">
	<path fill-rule="evenodd" clip-rule="evenodd" stroke-miterlimit="10" d="&#10;&#9;&#9;M185.3,226.8h-12.7c0,0-3.8,0-3.8-3.8v-44.6" id="el_i8xzuDjrf0j"/>
</g>
<g id="el_lHfbFOoqioU">
	<path fill-rule="evenodd" clip-rule="evenodd" stroke-miterlimit="10" d="&#10;&#9;&#9;M257.9,170.7h12.7c0,0,3.8,0,3.8,3.8v44.6" id="el_7Ap1Hn0wi5E"/>
</g>
<g id="el_yBflhDyQ8xM">
	<g id="el_UOCFZsNAVfA_iq_TP62TD" data-animator-group="true" data-animator-type="1"><path fill-rule="evenodd" clip-rule="evenodd" d="M217.7,194.5c1.1-1.1,2.5-1.6,3.9-1.6c1.4,0,2.8,0.5,3.9,1.6l0,0&#10;&#9;&#9;c1.1,1.1,1.6,2.5,1.6,3.9c0,1.4-0.5,2.8-1.6,3.9v0c-1.1,1.1-2.5,1.6-3.9,1.6c-1.4,0-2.8-0.5-3.9-1.6c-1.1-1.1-1.6-2.5-1.6-3.9&#10;&#9;&#9;C216.1,197,216.6,195.6,217.7,194.5L217.7,194.5z M221.6,194.3c-1.1,0-2.1,0.4-2.9,1.2c-0.8,0.8-1.2,1.9-1.2,2.9&#10;&#9;&#9;c0,1.1,0.4,2.1,1.2,2.9v0c0.8,0.8,1.9,1.2,2.9,1.2c1.1,0,2.1-0.4,2.9-1.2c0.8-0.8,1.2-1.9,1.2-2.9s-0.4-2.1-1.2-2.9&#10;&#9;&#9;C223.7,194.7,222.7,194.3,221.6,194.3z" id="el_UOCFZsNAVfA"/></g>
	<g id="el_gpUKnJT7vh-_8cFtopxZE" data-animator-group="true" data-animator-type="1"><g id="el_gpUKnJT7vh-">
		<path fill-rule="evenodd" clip-rule="evenodd" d="M218.6,190.7c1.1-0.5,2.2-0.7,3.4-0.7c2.2,0,4.3,0.8,6,2.5&#10;&#9;&#9;&#9;c1.6,1.6,2.5,3.8,2.5,6c0,1.2-0.2,2.3-0.7,3.4l2.2,2.2c1-1.7,1.5-3.6,1.5-5.5c0-2.9-1.1-5.8-3.3-8l0,0c-2.2-2.2-5.1-3.3-8-3.3&#10;&#9;&#9;&#9;c-1.9,0-3.8,0.5-5.6,1.5L218.6,190.7z" id="el_V-irHlfiQyQ"/>
		<path fill-rule="evenodd" clip-rule="evenodd" d="M226.4,205.6c-1.4,0.8-2.9,1.3-4.5,1.3c-2.2,0-4.3-0.8-6-2.5v0&#10;&#9;&#9;&#9;c-1.7-1.6-2.5-3.8-2.5-6c0-1.6,0.4-3.1,1.3-4.5l-2.1-2.1c-1.4,2-2.1,4.3-2.1,6.6c0,2.9,1.1,5.8,3.3,8c2.2,2.2,5.1,3.3,8,3.3&#10;&#9;&#9;&#9;c2.3,0,4.6-0.7,6.6-2.1L226.4,205.6z" id="el_-YaArj6Byux"/>
	</g></g>
</g>
<script>(function(){var a=document.querySelector('#el_oXm_Lcyhd'),b=a.querySelectorAll('style'),c=function(d){b.forEach(function(f){var g=f.textContent;g&amp;&amp;(f.textContent=g.replace(/transform-box:[^;\r\n]*/gi,'transform-box: '+d))})};c('initial'),window.requestAnimationFrame(function(){return c('fill-box')})})();</script></svg>