<?xml version="1.0" encoding="utf-8"?>
<!-- Generator: Adobe Illustrator 22.1.0, SVG Export Plug-In . SVG Version: 6.00 Build 0)  -->
<svg version="1.1" id="Layer_1" xmlns="http://www.w3.org/2000/svg" xmlns:xlink="http://www.w3.org/1999/xlink" x="0px" y="0px"
	 viewBox="0 0 400 400" style="enable-background:new 0 0 400 400;" xml:space="preserve">
<style type="text/css">
	.st0{fill:#515151;}
</style>
<path class="st0" d="M200,16.1C98.4,16.1,16.1,98.4,16.1,200c0,101.6,82.3,183.9,183.9,183.9S383.9,301.6,383.9,200
	C383.9,98.4,301.6,16.1,200,16.1z M200,362c-89.3,0-162-72.7-162-162c0-89.3,72.7-162,162-162s162,72.7,162,162
	C362,289.3,289.3,362,200,362z"/>
<path class="st0" d="M284.4,254.2c-19.6,22.5-47.1,43.9-84.4,43.9c-35.8,0-60.5-20.2-84.4-43.9l-7.6,7.6c17.3,26.4,49,54.7,92,54.7
	c42.9,0,74.7-28.3,91.9-54.7L284.4,254.2z"/>
<path class="st0" d="M132.3,149.2c-13.4,0-24.3,10.9-24.3,24.3c0,13.4,10.9,24.3,24.3,24.3s24.3-10.9,24.3-24.3
	C156.6,160.1,145.8,149.2,132.3,149.2z M132.3,185.3c-6.5,0-11.8-5.3-11.8-11.8c0-6.5,5.3-11.8,11.8-11.8c6.5,0,11.8,5.3,11.8,11.8
	C144.2,180,138.9,185.3,132.3,185.3z"/>
<path class="st0" d="M267.7,149.2c-13.4,0-24.3,10.9-24.3,24.3c0,13.4,10.9,24.3,24.3,24.3s24.3-10.9,24.3-24.3
	C292,160.1,281.1,149.2,267.7,149.2z M267.7,185.3c-6.5,0-11.8-5.3-11.8-11.8c0-6.5,5.3-11.8,11.8-11.8s11.8,5.3,11.8,11.8
	C279.5,180,274.2,185.3,267.7,185.3z"/>
</svg>
