<?xml version="1.0" encoding="utf-8"?>
<!-- Generator: Adobe Illustrator 22.1.0, SVG Export Plug-In . SVG Version: 6.00 Build 0)  -->
<svg version="1.1" id="Layer_1" xmlns="http://www.w3.org/2000/svg" xmlns:xlink="http://www.w3.org/1999/xlink" x="0px" y="0px"
	 viewBox="0 0 400 400" style="enable-background:new 0 0 400 400;" xml:space="preserve">
<style type="text/css">
	.st0{fill:#515151;}
</style>
<path id="layer-22" class="st0" d="M356.2,179.2l32.6,19c1.4,0.8,1.4,2.8,0,3.7L201,311.3c-0.7,0.4-1.5,0.4-2.1,0L11.2,201.8
	c-1.4-0.8-1.4-2.8,0-3.7l32.6-19c0.7-0.4,1.5-0.4,2.1,0l152.9,89.2c0.7,0.4,1.5,0.4,2.1,0l153-89.2
	C354.7,178.8,355.5,178.8,356.2,179.2z M198.9,348.4L46,259.1c-0.7-0.4-1.5-0.4-2.1,0l-32.6,19c-1.4,0.8-1.4,2.8,0,3.7l187.7,109.5
	c0.7,0.4,1.5,0.4,2.1,0l187.7-109.5c1.4-0.8,1.4-2.8,0-3.7l-32.6-19c-0.7-0.4-1.5-0.4-2.1,0l-153,89.2
	C200.4,348.7,199.6,348.7,198.9,348.4z M201,45.7l124.2,72.5c1.4,0.8,1.4,2.8,0,3.7L201,194.3c-0.7,0.4-1.5,0.4-2.1,0L74.7,121.9
	c-1.4-0.8-1.4-2.8,0-3.7l124.2-72.5C199.6,45.4,200.4,45.4,201,45.7z M198.9,8.7L11.2,118.2c-1.4,0.8-1.4,2.8,0,3.7l187.7,109.5
	c0.7,0.4,1.5,0.4,2.1,0l187.7-109.5c1.4-0.8,1.4-2.8,0-3.7L201,8.7C200.4,8.3,199.6,8.3,198.9,8.7z"/>
</svg>
