<?xml version="1.0" encoding="utf-8"?>
<!-- Generator: Adobe Illustrator 22.1.0, SVG Export Plug-In . SVG Version: 6.00 Build 0)  -->
<svg version="1.1" id="Layer_1" xmlns="http://www.w3.org/2000/svg" xmlns:xlink="http://www.w3.org/1999/xlink" x="0px" y="0px"
	 viewBox="0 0 38 23.4" style="enable-background:new 0 0 38 23.4;" xml:space="preserve">
<style type="text/css">
	.st0{opacity:0.5;}
</style>
<g class="st0">
	<path d="M19,18.1c0.5-0.4,0.9-0.8,1.4-1.2c2-1.8,4-3.5,6-5.3c0.5-0.5,1.2-0.4,1.7-0.1c0.6,0.5,0.6,1.4,0,1.9
		c-1,0.9-2.1,1.8-3.1,2.7c-1.7,1.5-3.3,2.9-5,4.4c-0.4,0.4-0.9,0.5-1.4,0.4c-0.1,0-0.3-0.1-0.4-0.2c-1.4-1.2-2.8-2.4-4.2-3.7
		c-1.4-1.2-2.7-2.4-4.1-3.6c-0.7-0.6-0.6-1.7,0.3-2.1c0.5-0.2,0.9-0.2,1.3,0.2c0.7,0.6,1.4,1.2,2,1.8C15.3,14.9,17.1,16.5,19,18.1
		C18.9,18.1,19,18.1,19,18.1z"/>
	<path d="M19,9.3c0.4-0.3,0.7-0.7,1.1-1c2.1-1.8,4.2-3.7,6.2-5.5c0.3-0.3,0.7-0.5,1.1-0.4c0.5,0.1,0.8,0.3,1,0.8
		c0.2,0.4,0.1,0.8-0.2,1.2c-0.2,0.3-0.5,0.5-0.7,0.7c-2.5,2.2-5.1,4.5-7.6,6.7c-0.4,0.3-0.8,0.5-1.3,0.3c-0.1,0-0.3-0.1-0.4-0.2
		c-1-0.8-1.9-1.7-2.9-2.5c-1.8-1.6-3.6-3.1-5.3-4.7C9.6,4.3,9.4,3.8,9.5,3.2c0.2-0.8,1.3-1.2,1.9-0.6c0.8,0.6,1.5,1.3,2.2,2
		C15.5,6.2,17.2,7.7,19,9.3C18.9,9.2,19,9.2,19,9.3z"/>
</g>
</svg>
