<?xml version="1.0" encoding="utf-8"?>
<!-- Generator: Adobe Illustrator 22.1.0, SVG Export Plug-In . SVG Version: 6.00 Build 0)  -->
<svg version="1.1" id="Layer_1" xmlns="http://www.w3.org/2000/svg" xmlns:xlink="http://www.w3.org/1999/xlink" x="0px" y="0px"
	 viewBox="0 0 1400 835" style="enable-background:new 0 0 1400 835;" xml:space="preserve">
<style type="text/css">
	.st0{opacity:5.000000e-02;}
	.st1{fill:#1B417C;}
	.st2{fill:#E6CF8B;}
	.st3{fill:#B56969;}
	.st4{fill:#E8EDF3;}
	.st5{fill:#19C7F5;}
	.st6{fill:url(#SVGID_1_);}
	.st7{fill:url(#SVGID_2_);}
	.st8{fill:url(#SVGID_3_);}
	.st9{fill:url(#SVGID_4_);}
	.st10{fill:#15CCBE;}
	.st11{fill:none;stroke:#FFFFFF;stroke-width:0.2113;stroke-miterlimit:10;}
	.st12{opacity:0.75;fill:#15CCBE;enable-background:new    ;}
	.st13{enable-background:new    ;}
	.st14{fill:#22264B;}
	.st15{fill:#EAD4B9;}
	.st16{fill:#BCBACE;}
	.st17{fill:#FFFFFF;}
	.st18{fill:url(#SVGID_5_);}
	.st19{fill:#CCCCCC;}
	.st20{fill:#737AFB;}
	.st21{fill:#1C1C1C;}
	.st22{fill:#E6E6E6;}
</style>
<title>geeks-New</title>
<g class="st0">
	<path class="st1" d="M829.1,355.7l39.5-44.8c-0.8-1.6-1.7-3.2-2.7-4.7l-41.8,47.4C825.7,354.5,827.4,355.2,829.1,355.7z"/>
	<path class="st1" d="M841.5,357.3l30.2-34.3c-0.1-2.2-0.5-4.4-1-6.6L834.9,357C837,357.4,839.2,357.5,841.5,357.3z"/>
	<path class="st1" d="M870.4,333.9c0.2-0.8,0.4-1.5,0.6-2.3l-21.1,24C859.9,352.1,867.5,344,870.4,333.9z"/>
	<path class="st1" d="M807.8,333.2l35.8-40.6c-2.2-0.3-4.4-0.4-6.7-0.2l-30.2,34.3C806.8,328.9,807.2,331.1,807.8,333.2z"/>
	<path class="st1" d="M819.7,350.9l42.9-48.6c-1.2-1.2-2.5-2.4-3.9-3.4l-42.9,48.6C817,348.7,818.3,349.8,819.7,350.9z"/>
	<path class="st1" d="M828.6,294.1c-10,3.4-17.7,11.5-20.6,21.7c-0.2,0.8-0.4,1.5-0.6,2.3L828.6,294.1z"/>
	<path class="st1" d="M812.5,343.4l41.8-47.4c-1.6-0.8-3.3-1.5-5-2.1l-39.5,44.8C810.6,340.4,811.5,341.9,812.5,343.4z"/>
	<path class="st2" d="M708.6,551.3l39.5-44.8c-0.8-1.6-1.7-3.2-2.7-4.7l-41.8,47.4C705.2,550,706.9,550.7,708.6,551.3z"/>
	<path class="st2" d="M721,552.8l30.2-34.3c-0.1-2.2-0.5-4.4-1.1-6.6l-35.8,40.6C716.5,552.9,718.8,553,721,552.8z"/>
	<path class="st2" d="M750,529.4c0.2-0.8,0.4-1.5,0.6-2.3l-21.2,24C739.4,547.6,747,539.5,750,529.4z"/>
	<path class="st2" d="M687.3,528.7l35.8-40.6c-2.2-0.3-4.4-0.4-6.7-0.2l-30.2,34.3C686.4,524.4,686.7,526.6,687.3,528.7z"/>
	<path class="st2" d="M699.2,546.4l42.9-48.7c-1.2-1.2-2.5-2.4-3.9-3.4L695.3,543C696.5,544.2,697.8,545.3,699.2,546.4z"/>
	<path class="st2" d="M708.1,489.6c-10,3.5-17.7,11.5-20.6,21.7c-0.2,0.8-0.4,1.5-0.6,2.3L708.1,489.6z"/>
	<path class="st2" d="M692,538.9l41.8-47.4c-1.6-0.8-3.3-1.5-5-2.1l-39.5,44.8C690.1,535.9,691,537.4,692,538.9z"/>
	<path class="st3" d="M705.5,237.3l39.5-44.8c-0.8-1.6-1.7-3.2-2.7-4.7l-41.8,47.4C702.1,236.1,703.8,236.8,705.5,237.3z"/>
	<path class="st3" d="M717.8,238.9l30.2-34.3c-0.1-2.2-0.5-4.4-1-6.6l-35.8,40.6C713.4,238.9,715.6,239,717.8,238.9z"/>
	<path class="st3" d="M746.8,215.5c0.2-0.8,0.4-1.5,0.6-2.3l-21.1,24C736.3,233.7,743.9,225.6,746.8,215.5z"/>
	<path class="st3" d="M684.2,214.8l35.9-40.6c-2.2-0.3-4.4-0.4-6.7-0.2l-30.3,34.3C683.2,210.4,683.6,212.6,684.2,214.8z"/>
	<path class="st3" d="M696.1,232.4l42.9-48.6c-1.2-1.2-2.5-2.4-3.9-3.4L692.2,229C693.4,230.2,694.7,231.4,696.1,232.4z"/>
	<path class="st3" d="M704.9,175.7c-10,3.5-17.7,11.5-20.6,21.7c-0.2,0.8-0.4,1.5-0.6,2.3L704.9,175.7z"/>
	<path class="st3" d="M688.9,225l41.8-47.4c-1.6-0.8-3.3-1.5-5-2.1l-39.5,44.8C686.9,221.9,687.9,223.5,688.9,225z"/>
	<path class="st4" d="M504.8,297.2l39.5-44.8c-0.8-1.6-1.7-3.2-2.7-4.7l-41.8,47.4C501.4,295.9,503.1,296.6,504.8,297.2z"/>
	<path class="st4" d="M517.2,298.7l30.2-34.3c-0.1-2.2-0.5-4.4-1-6.6l-35.8,40.6C512.8,298.8,515,298.9,517.2,298.7z"/>
	<path class="st4" d="M546.2,275.3c0.2-0.8,0.4-1.5,0.6-2.3l-21.2,24C535.6,293.6,543.3,285.5,546.2,275.3z"/>
	<path class="st4" d="M483.5,274.7l35.8-40.6c-2.2-0.3-4.4-0.4-6.7-0.2l-30.2,34.3C482.6,270.3,482.9,272.5,483.5,274.7z"/>
	<path class="st4" d="M495.4,292.3l42.9-48.6c-1.2-1.2-2.5-2.4-3.9-3.4l-42.9,48.6C492.8,290.1,494.1,291.3,495.4,292.3z"/>
	<path class="st4" d="M504.3,235.5c-10,3.5-17.7,11.5-20.6,21.7c-0.2,0.8-0.4,1.5-0.6,2.3L504.3,235.5z"/>
	<path class="st4" d="M488.2,284.9l41.8-47.4c-1.6-0.8-3.3-1.5-5-2.1l-39.5,44.8C486.3,281.8,487.2,283.4,488.2,284.9z"/>
	<path class="st5" d="M1010.9,331.4c0-3.8,3.1-6.8,6.8-6.8c3.8,0,6.8,3.1,6.8,6.8c0,3.8-3.1,6.8-6.8,6.8l0,0
		C1014,338.2,1010.9,335.1,1010.9,331.4L1010.9,331.4z"/>
	<path class="st5" d="M680.3,376.5c0-3.8,3-6.8,6.8-6.8s6.8,3,6.8,6.8s-3,6.8-6.8,6.8l0,0C683.4,383.3,680.3,380.3,680.3,376.5z"/>
	<path class="st5" d="M451.4,495.2c0-3.8,3.1-6.8,6.8-6.8s6.8,3.1,6.8,6.8c0,3.8-3.1,6.8-6.8,6.8S451.4,498.9,451.4,495.2
		L451.4,495.2z"/>
	
		<linearGradient id="SVGID_1_" gradientUnits="userSpaceOnUse" x1="3752.0298" y1="-602.1" x2="3757.8013" y2="-602.1" gradientTransform="matrix(-1 0 0 1 4305.23 923.1)">
		<stop  offset="0" style="stop-color:#F49940"/>
		<stop  offset="1" style="stop-color:#F5C43C"/>
	</linearGradient>
	<path class="st6" d="M547.4,321c0-1.6,1.3-2.9,2.9-2.9c1.6,0,2.9,1.3,2.9,2.9s-1.3,2.9-2.9,2.9l0,0
		C548.7,323.9,547.4,322.6,547.4,321z"/>
	
		<linearGradient id="SVGID_2_" gradientUnits="userSpaceOnUse" x1="3271.2217" y1="-422" x2="3276.9932" y2="-422" gradientTransform="matrix(-1 0 0 1 4305.23 923.1)">
		<stop  offset="0" style="stop-color:#F49940"/>
		<stop  offset="1" style="stop-color:#F5C43C"/>
	</linearGradient>
	<circle class="st7" cx="1031.1" cy="501.1" r="2.9"/>
	<circle class="st1" cx="431.2" cy="296.7" r="2.9"/>
	<circle class="st1" cx="431.2" cy="115" r="2.9"/>
	<circle class="st1" cx="556.1" cy="484.9" r="2.9"/>
	<path class="st1" d="M916.7,133c0-1.6,1.3-2.9,2.9-2.9c1.6,0,2.9,1.3,2.9,2.9c0,1.6-1.3,2.9-2.9,2.9l0,0
		C918,135.9,916.7,134.6,916.7,133L916.7,133z"/>
	<circle class="st1" cx="774.1" cy="284.9" r="2.9"/>
	
		<linearGradient id="SVGID_3_" gradientUnits="userSpaceOnUse" x1="3492.5552" y1="-507.8" x2="3498.3264" y2="-507.8" gradientTransform="matrix(-1 0 0 1 4305.23 923.1)">
		<stop  offset="0" style="stop-color:#F49940"/>
		<stop  offset="1" style="stop-color:#F5C43C"/>
	</linearGradient>
	<circle class="st8" cx="809.8" cy="415.3" r="2.9"/>
	<circle class="st1" cx="915.2" cy="487.8" r="2.9"/>
	<path class="st1" d="M912.3,336.8c0-1.6,1.3-2.9,2.9-2.9c1.6,0,2.9,1.3,2.9,2.9s-1.3,2.9-2.9,2.9
		C913.6,339.7,912.3,338.4,912.3,336.8L912.3,336.8z"/>
	
		<linearGradient id="SVGID_4_" gradientUnits="userSpaceOnUse" x1="3329.8823" y1="-665.2" x2="3335.645" y2="-665.2" gradientTransform="matrix(-1 0 0 1 4305.23 923.1)">
		<stop  offset="0" style="stop-color:#F49940"/>
		<stop  offset="1" style="stop-color:#F5C43C"/>
	</linearGradient>
	<circle class="st9" cx="972.5" cy="257.9" r="2.9"/>
	<circle class="st1" cx="503.6" cy="432.7" r="5"/>
	<circle class="st1" cx="618.8" cy="240.3" r="5"/>
	<circle class="st1" cx="866.3" cy="175.9" r="5"/>
</g>
<path class="st10" d="M560.3,346.7c2-7.4-0.4-13.2-3.2-19.8c-2.6-6.5-3.3-13.6-2.1-20.5c1.4-9.4,4.5-18.5,0.9-27.6
	c-3.4-8.6-6.6-19.9-15.9-23.5c-9-3.9-15.9,5.1-15.7,13.3s4.8,15.6,2.5,23.7c-1.8,6.6-4.1,14.5-0.6,20.9c4.1,7.9,11.8,13.4,9,23
	c-1.1,3.4-3,6.3-3.4,9.8c-0.5,5.2,2.2,6.5,4.5,10.6c9.9,17.5-8.3,24.5-1.1,43.8c0.2,0.5,0.7,0.9,1.3,0.8l0,0c0.6,0,1.1-0.5,1.2-1.1
	c2.3-21.5,17.6-14.1,17.7-31.5c0-3.2-1-6.5-0.6-9.7C555.3,353.9,559.1,351.3,560.3,346.7z"/>
<path class="st11" d="M540,353.2c0,0,0.8,9.8,8,11.1"/>
<path class="st11" d="M533.1,305.6c0,0,0.5,11,9.7,14"/>
<path class="st11" d="M553.6,290.7c0,0-0.4,11.4-9.4,13.2"/>
<path class="st11" d="M553.3,326.4c0,0,2.2,12.5-5.1,15.7"/>
<path class="st11" d="M551.4,368.4c0,0,0,11.4-11.4,12.5"/>
<path class="st11" d="M537.1,274.7c0,0,0.8,11.5,7.7,13.4"/>
<path class="st11" d="M538,266.8c7.9,7.8,7.2,25.5,6.6,33.7c-0.5,5.9-3.7,19.8,0,29.8c3.9,10.6,7.3,22,2.9,36.6
	c-3.1,10.2-13.1,15.2-11.1,33.8"/>
<path class="st12" d="M555.4,367.6c0,0.3,0,0.7,0,1c-0.1,11.4-6.8,12.2-11.9,17.4c0.6-3.1,0.8-6.8,2.8-9.3c2.2-2.5,5.2-3,7.5-5.9
	C554.4,369.8,555,368.7,555.4,367.6z M557.2,326.9c-2.6-6.5-3.3-13.6-2.1-20.5c0.1-0.7,0.2-1.4,0.3-2c-3.6,1.4-6.5,4.1-8,7.6
	c-5,10.7-1.1,17.9,3.3,26c3.5,6.6,1.2,12.7,2,19.6c0.3,2.9,1.6,5.2,2.5,7.3c-0.3-2-0.5-4-0.3-6c0.5-5,4.3-7.5,5.5-12.2
	C562.4,339.3,559.9,333.5,557.2,326.9L557.2,326.9z M538.4,382.8c-0.8-1.5-1.4-3.1-1.7-4.8c-2.3,5.9-4.8,12.1-2.1,20.8v0.1
	c0.2,0.5,0.3,1,0.5,1.5c0,0.1,0.1,0.2,0.1,0.3l0,0c0.1,0.1,0.1,0.2,0.2,0.2l0,0c0.3,0.2,0.6,0.3,0.9,0.3l0,0c0.6,0,1.1-0.5,1.2-1.1
	V400c0.2-2.7,0.8-5.3,1.8-7.9c-0.5,0.3-0.9,0.6-1.4,0.9C539.6,389.6,540.6,387.6,538.4,382.8z"/>
<path class="st10" d="M583.7,336.1c-4.5-8.2-4.5-13.6-4-22.4c0.5-8.9-2.2-20.9-13.2-22.8c-8.2-1.5-14.9,1.8-17.9,8.3
	c-5.1,10.7-1.1,17.9,3.3,26c3.5,6.6,1.2,12.7,2,19.6c0.7,7,7,10.2,1.7,17.4c-2.2,3-5.2,3.5-7.5,6c-2.2,2.7-2.2,7-3,10.2
	c-2,8-9.8,6.9-10.1,15c0,0.6,0.5,1.2,0.9,1.2s0.8,0.1,1.1-0.5c1.8-3.3,4.9-2.8,8.3-4.3c2.5-1.1,3.3-4.2,9.4-5
	c7.9-1,15.2,4.2,19.1-6.5c1.5-3.7,1-7,1.7-10.7c0.7-5,4-8,7.2-11.4C588.4,349.7,587.7,343.3,583.7,336.1z"/>
<path class="st11" d="M556.3,310.6c0,0,5.2,9.2,12.5,9.9"/>
<path class="st11" d="M561.8,339.2c0,0-0.4,16.6,4.9,20.1"/>
<path class="st11" d="M579.1,328.1c0,0-0.6,14.3-9.6,16.8"/>
<path class="st11" d="M571.8,369c0,0-4.6,13.7-17.6,11.5"/>
<path class="st11" d="M569.9,297.8c0,0,3.8,10.8-1.9,16"/>
<path class="st11" d="M536.9,393.8c1.2-4.5,7.8-6.1,9.7-7.3c21-13.7,29.2-40.1,18.8-84.9"/>
<path class="st10" d="M538.2,377c-2.5-5.3-0.1-12.1-2.5-16c-3-4.8-7.9-1.2-13.7-7.8c-4.8-5.6-1.4-13.3-12.4-19.1
	c-3.4-1.8-7.3-0.9-8.6,2.9c-1.6,3.6,0.9,8.7,2.1,12.1c1.1,2.9,2.5,5.1,1.9,8.3v0.1c-0.6,2.5-2.3,3.8-1.4,6.8
	c1.8,7.1,11.9,6.5,17,10.9c3.6,3.1,0.4,6.9,3.9,11.6s5.3-0.4,11.6,10.7c0.2,0.4,0.7,0.5,1.1,0.3l0,0c0.3-0.2,0.4-0.5,0.4-0.8
	C536.7,385.1,541.9,384.8,538.2,377z"/>
<path class="st11" d="M503.6,339.3c0,0,0.6,5.5,5.8,7.2"/>
<path class="st11" d="M506.5,354.9c0,0,5.2,6,11.7,3.6"/>
<path class="st11" d="M525.8,355.3c0,0,3.9,6.5,1,9.5"/>
<path class="st11" d="M531.9,367.6c0,0,2.3,8-1.7,11"/>
<path class="st11" d="M513.4,342.9c0,0,3.4,8.4,0.5,11.4"/>
<path class="st11" d="M518.2,367c0,0,3,5.1,11.6,4.6"/>
<path class="st11" d="M524,377.9c0,0,0.8,5.2,9.2,6.4"/>
<path class="st11" d="M535.8,394.2c-0.3-10.9-6.2-11.8-6-18.3c0.2-5.1,0-9.8-6.2-13.5c-10.5-6.3-14.9-12.9-17.1-26.8"/>
<g class="st13">
	<path class="st14" d="M529,376.9c0,14.3-10.5,24.1-26.1,24.1h-20.2v-48.1h20.7C518.7,352.9,529,362.7,529,376.9z M516.2,377.1
		c0-8.3-5.4-13.9-13-13.9h-7.9v27.7h8.5C511,390.9,516.2,385.3,516.2,377.1z"/>
</g>
<g class="st13">
	<path class="st14" d="M565.7,392.5h-20.8l-3.4,8.5h-12.9l20.7-48.1h12.9l20.2,48.1H569L565.7,392.5z M562,382.9l-6.6-17.2
		l-6.7,17.2H562z"/>
	<path class="st14" d="M613.1,352.9v10.4h-14.4V401h-12.6v-37.7h-14.3v-10.4H613.1z"/>
</g>
<g class="st13">
	<path class="st14" d="M652,392.5h-20.8l-3.4,8.5H615l20.7-48.1h12.9l20.2,48.1h-13.4L652,392.5z M648.3,382.9l-6.6-17.2l-6.7,17.2
		H648.3z"/>
	<path class="st14" d="M725.5,376.5h10.8v18.9c-5.1,3.6-13.3,6.2-20,6.2c-14.7,0-25.7-10.6-25.7-24.6s11.3-24.4,26.6-24.4
		c7.2,0,14.8,2.7,19.8,7.1l-7.1,8.8c-3.4-3.2-8.3-5.3-12.7-5.3c-7.8,0-13.6,6-13.6,13.8c0,7.9,5.9,13.9,13.7,13.9
		c2.4,0,5.4-0.8,8.3-2.3L725.5,376.5L725.5,376.5z"/>
	<path class="st14" d="M782.6,352.9v10h-25.4v9h22.9v10l-22.9,0.1v9.1h26.1v10h-38.6V353h37.9V352.9z"/>
	<path class="st14" d="M828.9,352.9v10h-25.4v9h22.9v10l-22.9,0.1v9.1h26.1v10H791V353h37.9V352.9z"/>
	<path class="st14" d="M868.5,401L856,382.4l-6.2,6.9V401h-12.6v-48.1h12.6v20.2l18.1-20.2h14.5l-17.8,19.9l18.9,28.2H868.5z"/>
	<path class="st14" d="M906.4,362.6c-3,0-5,1.1-5,3.3c0,8,25.3,3.4,25.3,20.7c0,9.8-8.6,14.8-19.4,14.8c-8,0-16.4-3-22.2-7.7
		l4.9-9.8c4.9,4.3,12.4,7.3,17.4,7.3c3.7,0,6-1.4,6-3.9c0-8.2-25.3-3.2-25.3-20.2c0-9,7.6-14.7,19.2-14.7c7.1,0,14.2,2.2,19.2,5.4
		l-4.7,10C916.8,364.9,910.3,362.6,906.4,362.6z"/>
</g>
<path class="st15" d="M608.3,295.5L608.3,295.5c0-0.4,0.4-0.7,0.8-0.7h0.6c0.4,0,0.8,0.3,0.8,0.8v2.5l0,0c0,1.2-0.9,2.3-2.1,2.5
	L608.3,295.5L608.3,295.5z"/>
<path class="st16" d="M599.8,353.6l-14.6,6.2l2.7,40.6h-3l-12.8-41.7c-0.4-1.9,0.5-3.8,2.2-4.7l13.8-7.7L599.8,353.6z"/>
<path class="st3" d="M588,400.5l0.7,6.1c0,0-6.8,10.2-9.4,10.5c-2.7,0.2-1.5-4.1,0-6c1.5-2,4.5-6.1,4.5-6.1l1.1-4.4h3.1L588,400.5
	L588,400.5z"/>
<path class="st16" d="M611.9,346.4l13.8,7.7c1.7,0.9,2.6,2.8,2.2,4.7l-12.8,41.7h-3l2.7-40.6l-14.6-6.2L611.9,346.4z"/>
<path class="st3" d="M612.1,400.5l-0.7,6.1c0,0,6.8,10.2,9.4,10.5s1.5-4.1,0-6c-1.5-2-4.5-6.1-4.5-6.1l-1.1-4.4h-3.1L612.1,400.5
	L612.1,400.5z"/>
<path class="st2" d="M629,330l-10.7-17.3c0,0-2.7-3.4-8.2-3.3l-5.1,1c-0.1,2.8-2.5,4-5.3,4s-5.7-1.5-5.8-4.3l-4.6-0.7
	c-3.1-0.2-6.1,1.1-8.2,3.3L570.3,330c-1.7,2.9,0.6,5.7,0.6,5.7l9.5,15l3.1-0.8l-6.6-15.3c-0.7-1.3-0.7-2.8,0.2-4l7.6-8.1l2.9,17.5
	h24.2l2.9-17.5l7.6,8.1c0.9,1.2,1,2.7,0.2,4l-6.7,15.3l3.1,0.8l9.5-15C628.4,335.7,630.7,332.9,629,330z"/>
<path class="st17" d="M583.2,353.6h34.2c1.2,0,2.4-0.8,2.7-2l2.9-11.3c0.3-2-1.1-3.9-3.1-4.2c-0.3,0-0.5,0-0.8,0l-39.2,0.3
	c-2-0.1-3.7,1.5-3.8,3.5c0,0.2,0,0.5,0,0.7l4.4,11.2C581.1,352.9,582.1,353.6,583.2,353.6z"/>
<linearGradient id="SVGID_5_" gradientUnits="userSpaceOnUse" x1="594.0952" y1="927.2778" x2="558.6555" y2="926.4412" gradientTransform="matrix(1 0 0 -1 0 1272)">
	<stop  offset="0" style="stop-color:#484EC2;stop-opacity:0"/>
	<stop  offset="1" style="stop-color:#444BCC;stop-opacity:0.5"/>
</linearGradient>
<path class="st18" d="M604.2,336.2l-24.2,0.2c-2-0.1-3.7,1.5-3.8,3.5c0,0.2,0,0.5,0,0.7l4.4,11.2c0.4,1.1,1.5,1.7,2.6,1.7h6.1
	L604.2,336.2z"/>
<ellipse class="st19" cx="599.3" cy="346.3" rx="3.4" ry="2.9"/>
<path class="st15" d="M595.8,307.6h7.3v4.6c0,1.7-1.6,3.1-3.7,3.1l0,0c-2,0-3.7-1.4-3.7-3.1L595.8,307.6z"/>
<path class="st20" d="M595.8,307.2h7.7v4.9c0,1-0.4,1.9-1.2,2.5c-1.6,1.3-4,1.3-5.6,0c-0.7-0.6-1.2-1.5-1.2-2.5v-4.9H595.8z
	 M602.8,307.9h-6.6v4.2c0,0.8,0.4,1.5,1,2c1.4,1.1,3.3,1.1,4.7,0c0.6-0.5,0.9-1.2,0.9-2L602.8,307.9L602.8,307.9z"/>
<path class="st15" d="M599.6,285L599.6,285c4.8,0,8.6,3.9,8.7,8.7v6.4c0,4.8-3.9,8.6-8.7,8.7l0,0c-4.8,0-8.6-3.9-8.7-8.7v-6.4
	C591,288.9,594.9,285,599.6,285z"/>
<path class="st15" d="M591,295.5L591,295.5c0-0.4-0.4-0.7-0.8-0.7h-0.6c-0.4,0-0.8,0.3-0.8,0.8v2.5l0,0c0,1.2,0.9,2.3,2.1,2.5
	L591,295.5L591,295.5z"/>
<path class="st21" d="M599.6,284.7c2.4,0,4.6,1,6.3,2.7c1.7,1.8,2.6,4.1,2.6,6.5v6.5c0,2.4-0.9,4.8-2.6,6.5
	c-3.3,3.5-8.7,3.6-12.2,0.4c-0.1-0.1-0.3-0.2-0.4-0.4c-1.7-1.8-2.6-4.1-2.6-6.5v-6.5c0-2.4,0.9-4.8,2.6-6.5
	C595,285.7,597.3,284.7,599.6,284.7L599.6,284.7z M605.4,287.9c-3-3.2-8-3.4-11.2-0.4c-0.1,0.1-0.2,0.2-0.4,0.4
	c-1.5,1.6-2.4,3.8-2.4,6v6.5c0,2.2,0.9,4.4,2.4,6c3,3.2,8,3.4,11.2,0.4c0.1-0.1,0.2-0.2,0.4-0.4c1.5-1.6,2.4-3.8,2.4-6v-6.5
	C607.8,291.7,606.9,289.5,605.4,287.9z"/>
<polygon class="st22" points="594.7,309.2 600,315.6 595.3,319.1 592.3,311.4 "/>
<polygon class="st22" points="604.2,309.2 600,315.6 603.6,319.1 606.6,311.4 "/>
<path class="st14" d="M599.6,312.8L599.6,312.8c4.8,0,8.7-4.9,8.7-10.9v-9.1c0-4.8-3.9-8.6-8.7-8.7l0,0c-4.8,0-8.6,3.9-8.7,8.7v9.1
	C591,307.9,594.9,312.8,599.6,312.8z M606.8,296.9L606.8,296.9v3.6c0.1,6-2.5,8.7-7.1,5.8c-4.6,2.9-7.2,0.2-7.1-5.8v-6.4
	c-0.1-4.7,2.5-6.9,7.1-4.6c4.6-2.3,7.1-0.1,7.1,4.6V296.9z"/>
</svg>
