<?xml version="1.0" encoding="utf-8"?>
<!-- Generator: Adobe Illustrator 22.1.0, SVG Export Plug-In . SVG Version: 6.00 Build 0)  -->
<svg version="1.1" id="Layer_1" xmlns="http://www.w3.org/2000/svg" xmlns:xlink="http://www.w3.org/1999/xlink" x="0px" y="0px"
	 viewBox="0 0 60.3 79.5" style="enable-background:new 0 0 60.3 79.5;" xml:space="preserve">
<style type="text/css">
	.st0{fill:#7B7B7C;}
</style>
<g>
	<path class="st0" d="M31.3,60.6c0,3.5,0,6.8,0,10.5c0.9-0.9,1.7-1.7,2.5-2.4c0.3-0.3,0.5-0.6,0.8-0.7c0.3-0.1,0.6,0,0.9,0
		c0,0.3,0,0.7-0.1,0.8c-1.5,1.6-3.1,3.1-4.7,4.8c-1.6-1.6-3.2-3.2-4.7-4.7c-0.2-0.2-0.1-0.6-0.1-0.9c0.3,0,0.7-0.1,0.9,0.1
		c0.7,0.6,1.4,1.3,2.1,2c0.3,0.3,0.6,0.7,0.9,1.1c0.1-0.1,0.2-0.1,0.3-0.2c0-0.3,0.1-0.6,0.1-0.9c0-8.3,0-16.6,0-24.8
		c0-2.6,0-5.2,0-7.7c0-0.4,0.3-0.9,0.5-1.3c0.2,0.4,0.6,0.9,0.6,1.3c0,6.8,0,13.6,0,20.4c0,0.5,0,0.9,0,1.5
		c4.6-0.3,8.5-1.8,11.5-5.2c1.8-2,2.8-4.4,2.8-7.2c0-8.7,0-17.3,0-26c0-3.4-1.4-6.1-3.9-8.3c-6-5.5-16.2-5.4-22.2,0
		c-2.4,2.2-3.8,4.9-3.8,8.2c0,8.3,0.2,16.6-0.1,24.9c-0.2,6.9,4.8,11.1,9.3,12.6c0.9,0.3,1.9,0.5,3,0.8c0,0.3,0,0.6,0.1,0.9
		c-0.1,0.1-0.2,0.2-0.3,0.1c-6.3-0.6-12-5.3-13-11.2c-0.4-2.2-0.2-4.6-0.2-6.9c0-6.6,0-13.2,0-19.8c0-7,3.3-11.8,9.9-14
		c6.4-2.1,12.4-1.3,17.7,3c3,2.5,4.7,5.7,4.7,9.7c0,5.8,0,11.7,0,17.5c0,2.5,0,5,0,7.5c0.1,4.9-2,8.6-6,11.4
		C38,59.5,34.8,60.3,31.3,60.6z"/>
	<path class="st0" d="M30.6,28.7c-2.7,0-4.9-2.1-4.8-4.9c0-2.7,2.2-4.9,4.9-4.9c2.7,0,4.9,2.2,4.9,4.9
		C35.4,26.5,33.3,28.7,30.6,28.7z M34.2,23.8c0-2-1.6-3.6-3.6-3.7c-2,0-3.6,1.6-3.6,3.6c0,2.1,1.6,3.7,3.7,3.7
		C32.7,27.4,34.2,25.8,34.2,23.8z"/>
</g>
</svg>
